<?xml version="1.0" encoding="utf-8"?>
<!-- Generator: Adobe Illustrator 13.0.0, SVG Export Plug-In . SVG Version: 6.00 Build 14948)  -->
<!DOCTYPE svg PUBLIC "-//W3C//DTD SVG 1.1//EN" "http://www.w3.org/Graphics/SVG/1.1/DTD/svg11.dtd">
<svg version="1.1" id="Layer_1" xmlns="http://www.w3.org/2000/svg" xmlns:xlink="http://www.w3.org/1999/xlink" x="0px" y="0px"
	 width="432px" height="144px" viewBox="0 0 432 144" enable-background="new 0 0 432 144" xml:space="preserve">
<rect fill-rule="evenodd" clip-rule="evenodd" fill="#203A4F" width="432" height="144"/>
<g>
	<g>
		<radialGradient id="SVGID_1_" cx="74.0083" cy="77.6709" r="58.6096" gradientUnits="userSpaceOnUse">
			<stop  offset="0" style="stop-color:#00AEEF"/>
			<stop  offset="0.28" style="stop-color:#00AEEF"/>
			<stop  offset="1" style="stop-color:#203A4F"/>
		</radialGradient>
		<path fill="url(#SVGID_1_)" d="M75.531,37.418c0.409,0,0.613,0,1.022,0c0.613,0,1.228,0.409,1.637,0.818
			c0.613,0.409,0.817,1.432,0.817,2.454v7.16h-2.045v-7.773c0,0-0.206-0.205-0.206-0.409c0,0-0.204-0.205-0.408-0.409
			c0,0-0.205-0.204-0.409-0.204c0,0-0.206-0.205-0.409-0.205h-0.615v-1.432C75.122,37.418,75.326,37.418,75.531,37.418
			L75.531,37.418z M83.917,38.237c0.818,0.204,1.842,0.409,2.659,0.613c-0.613,0-1.226,0.409-1.635,1.022
			c-0.409,0.614-0.615,1.637-0.615,2.865c0,0.613,0,1.022,0.206,1.432c0.204,0.409,0.204,0.818,0.409,1.228
			c0.204,0.204,0.409,0.613,0.818,0.613c0.204,0.205,0.613,0.409,1.022,0.409s0.613-0.204,1.022-0.409
			c0.205-0.204,0.613-0.409,0.818-0.819c0.204-0.204,0.409-0.613,0.409-1.022c0.204-0.613,0.204-1.022,0.204-1.637
			c0-0.613,0-1.022-0.204-1.636c0-0.409-0.205-0.818-0.409-1.023c-0.205-0.204-0.205-0.409-0.409-0.613
			c1.022,0.409,2.046,0.818,2.863,1.228l0,0c0.205,0.613,0.409,1.432,0.409,2.25c0,0.818-0.204,1.432-0.409,2.044
			c-0.204,0.615-0.409,1.228-0.817,1.841c-0.41,0.41-1.024,0.819-1.637,1.024c-0.409,0.204-1.228,0.409-1.841,0.409
			c-0.615,0-1.228-0.205-1.841-0.409c-0.615-0.205-1.024-0.614-1.432-1.024c-0.409-0.613-0.818-1.226-1.024-1.841
			c-0.204-0.613-0.409-1.432-0.409-2.25c0-0.613,0.205-1.432,0.409-2.045c0.206-0.614,0.615-1.228,1.024-1.841
			C83.509,38.441,83.713,38.441,83.917,38.237L83.917,38.237z M96.601,43.146c0.818,0.409,1.432,1.022,2.25,1.432v3.272h-2.25
			V43.146L96.601,43.146z M107.033,51.941c0.409,0.615,0.613,1.024,1.022,1.637c0.206,0.409,0.206,0.818,0.206,1.432v7.16h-2.046
			v-7.773c0,0,0-0.206-0.204-0.409c0-0.206-0.205-0.206-0.205-0.409c-0.204,0-0.204-0.204-0.409-0.204
			c-0.204-0.205-0.409-0.205-0.409-0.205h-0.817v-1.637h0.817C105.805,51.532,106.419,51.738,107.033,51.941L107.033,51.941z
			 M116.442,79.76c0,0.616,0,1.229,0,1.843c-0.205,0-0.205,0-0.205,0c-0.817,0-1.432,0.205-1.841,1.023
			c-0.409,0.613-0.613,1.634-0.613,2.863c0,0.613,0,1.021,0,1.432c0.204,0.411,0.409,0.818,0.613,1.229
			c0.205,0.202,0.409,0.407,0.614,0.61l0.204,0.208c-0.204,0.407-0.409,1.021-0.613,1.634c-0.205,0-0.205-0.202-0.409-0.202
			c-0.613-0.205-1.022-0.613-1.432-1.024c-0.409-0.615-0.818-1.226-1.024-1.839c-0.204-0.616-0.204-1.435-0.204-2.25
			c0-0.616,0-1.435,0.204-2.048c0.206-0.818,0.615-1.229,1.024-1.843c0.409-0.407,0.818-0.818,1.432-1.226
			c0.613-0.203,1.228-0.411,2.045-0.411H116.442L116.442,79.76z M111.124,98.582c-1.432,2.25-2.863,4.498-4.705,6.545
			c-0.614,0-1.228,0-1.842-0.41c-0.408-0.203-1.022-0.61-1.432-1.021c-0.409-0.615-0.613-1.023-1.022-1.842
			c-0.204-0.613-0.204-1.432-0.204-2.045c0-0.818,0-1.637,0.204-2.25c0.409-0.613,0.613-1.227,1.022-1.84
			c0.41-0.41,1.024-0.818,1.432-1.023c0.615-0.411,1.228-0.411,2.046-0.411c0.613,0,1.228,0,1.841,0.411
			c0.615,0.205,1.022,0.613,1.432,1.227c0.409,0.41,0.818,1.023,1.024,1.637C110.92,97.966,111.124,98.172,111.124,98.582
			L111.124,98.582z M100.282,110.856c-0.613,0.408-1.228,0.815-1.637,1.224c-0.204-0.202-0.409-0.61-0.409-0.815
			c-0.204-0.408-0.613-0.616-0.817-0.818c-0.409-0.206-0.614-0.206-1.023-0.206c-0.819,0-1.432,0.408-1.841,1.024
			c-0.41,0.613-0.613,1.637-0.613,2.863c0,0.202,0,0.41,0,0.818c-0.615,0.205-1.432,0.613-2.046,0.818
			c-0.204-0.408-0.204-1.023-0.204-1.842c0-0.613,0.204-1.432,0.409-2.045c0.204-0.613,0.409-1.229,0.817-1.84
			c0.409-0.41,1.024-0.821,1.637-1.023c0.409-0.408,1.228-0.616,1.841-0.616c0.614,0,1.228,0.208,1.841,0.616
			c0.614,0.202,1.024,0.613,1.433,1.023C99.873,110.446,100.077,110.648,100.282,110.856L100.282,110.856z M88.623,117.196
			c-0.818,0.205-1.432,0.411-2.25,0.613v-6.34c0,0,0-0.205,0-0.41c-0.206,0-0.206-0.203-0.409-0.411c0,0-0.204-0.202-0.409-0.202
			c-0.204,0-0.204-0.206-0.41-0.206h-0.818v-1.634h1.024c1.022,0,1.841,0.408,2.454,1.021c0.409,0.612,0.818,1.432,0.818,2.452
			V117.196L88.623,117.196z M78.395,119.241c-1.022,0-2.045,0-2.863,0h-0.409c-0.206,0-0.206,0-0.409-0.202
			c-0.613-0.206-1.022-0.616-1.432-1.024c-0.41-0.613-0.819-1.227-1.024-1.842c-0.204-0.613-0.408-1.432-0.408-2.25
			c0-0.613,0.204-1.432,0.408-2.045c0.205-0.613,0.614-1.229,1.024-1.84c0.409-0.41,0.818-0.821,1.432-1.023
			c0.613-0.408,1.228-0.616,1.841-0.616c0.818,0,1.432,0.208,2.046,0.616c0.408,0.202,1.022,0.613,1.432,1.023
			c0.409,0.61,0.613,1.227,1.022,1.84c0.204,0.613,0.204,1.432,0.204,2.25s0,1.432-0.204,2.045
			c-0.409,0.818-0.613,1.229-1.022,1.842c-0.409,0.408-1.023,0.818-1.432,1.024L78.395,119.241L78.395,119.241z M68.781,118.628
			c-0.615,0-1.433-0.205-2.046-0.408v-6.75c0,0,0-0.205-0.204-0.41c0,0-0.206-0.203-0.206-0.411c-0.204,0-0.409-0.202-0.409-0.202
			c-0.204,0-0.409-0.206-0.613-0.206H64.69v-1.634h0.817c1.024,0,1.841,0.408,2.456,1.021c0.613,0.612,0.818,1.432,0.818,2.452
			V118.628L68.781,118.628z M61.007,116.58c-0.613-0.202-1.227-0.407-2.045-0.815l0.204-0.205c0-0.613,0.206-1.021,0.206-1.637
			c0-0.613-0.206-1.021-0.206-1.635c-0.204-0.41-0.409-0.818-0.613-1.023c-0.206-0.408-0.409-0.616-0.613-0.818
			c-0.409-0.206-0.615-0.206-1.024-0.206c-0.818,0-1.432,0.408-1.841,1.024c-0.409,0.407-0.613,1.227-0.613,2.25
			c-0.614-0.408-1.432-0.818-2.046-1.435v-0.202c0.409-0.613,0.614-1.229,1.022-1.84c0.409-0.41,1.023-0.821,1.433-1.023
			c0.613-0.408,1.227-0.616,2.045-0.616c0.615,0,1.228,0.208,1.841,0.616c0.615,0.202,1.024,0.613,1.433,1.023
			c0.408,0.61,0.817,1.227,1.022,1.84c0.204,0.613,0.409,1.432,0.409,2.25s-0.205,1.432-0.409,2.045
			C61.212,116.378,61.007,116.58,61.007,116.58L61.007,116.58z M39.528,97.966c-0.613-1.021-1.226-2.044-1.636-3.271
			c0.204,0.205,0.613,0.407,0.819,0.613c0.613,0.613,0.817,1.432,0.817,2.455V97.966L39.528,97.966z M36.46,90.808
			c-0.205-0.818-0.614-1.432-0.614-2.25c0,0.203,0,0.203,0.205,0.203c0.204,0.208,0.613,0.41,1.022,0.41s0.613-0.202,1.022-0.41
			c0.206-0.203,0.615-0.408,0.818-0.816c0.206-0.205,0.409-0.612,0.409-1.023c0.204-0.613,0.204-1.021,0.204-1.634
			c0-0.616,0-1.027-0.204-1.64c0-0.408-0.204-0.819-0.409-1.021c-0.204-0.408-0.409-0.616-0.818-0.818
			c-0.204-0.205-0.613-0.205-0.818-0.205c-0.817,0-1.432,0.205-2.045,1.023c-0.205,0.202-0.409,0.818-0.409,1.227
			c-0.204-1.024-0.204-2.045-0.409-3.066c0.205-0.208,0.613-0.41,0.818-0.615c0.613-0.203,1.228-0.411,1.841-0.411
			c0.818,0,1.432,0.208,1.841,0.616c0.613,0.202,1.228,0.613,1.637,1.021c0.409,0.613,0.613,1.229,0.818,1.843
			c0.204,0.613,0.408,1.432,0.408,2.25s-0.204,1.432-0.408,2.048c-0.205,0.613-0.409,1.224-0.818,1.839
			c-0.409,0.411-1.024,0.819-1.637,1.024c-0.409,0.202-1.228,0.407-1.841,0.407C36.87,90.808,36.665,90.808,36.46,90.808
			L36.46,90.808z M35.846,67.692c0.205-0.613,0.409-1.227,0.409-1.841c1.022,0,1.841,0.409,2.456,1.023
			c0.613,0.613,0.817,1.432,0.817,2.454v6.954h-2.25v-7.567c0,0,0-0.206,0-0.41c-0.204,0-0.204-0.205-0.408-0.409
			c0,0-0.206-0.205-0.41-0.205c0,0-0.205,0-0.409,0H35.846L35.846,67.692z M37.687,62.375c1.024-2.456,2.456-4.91,3.887-7.16
			c0.204,0.613,0.204,1.227,0.204,1.841c0,0.613-0.204,1.432-0.408,2.045c-0.205,0.615-0.409,1.228-0.818,1.637
			c-0.409,0.613-1.024,1.022-1.637,1.228C38.505,62.17,38.096,62.375,37.687,62.375L37.687,62.375z M47.711,48.056
			c1.226-1.023,2.454-2.046,3.885-3.068c-0.204,0.613-0.613,1.022-1.022,1.635c-0.41,0.41-0.819,0.819-1.432,1.024
			C48.733,47.851,48.324,48.056,47.711,48.056L47.711,48.056z M57.121,41.715c0.613-0.409,1.432-0.819,2.25-1.024v7.16h-2.25V41.715
			L57.121,41.715z M63.257,39.259c2.046-0.613,4.091-1.228,6.137-1.432c0.409,0.204,0.818,0.613,1.022,0.818
			c0.409,0.613,0.818,1.227,1.023,1.841c0.204,0.613,0.204,1.432,0.204,2.25c0,0.818,0,1.432-0.204,2.044
			c-0.205,0.615-0.614,1.228-1.023,1.841c-0.409,0.41-0.817,0.819-1.432,1.024c-0.613,0.204-1.228,0.409-2.045,0.409
			c-0.615,0-1.228-0.205-1.842-0.409c-0.613-0.205-1.022-0.614-1.432-1.024c-0.409-0.613-0.818-1.226-1.022-1.841
			c-0.204-0.613-0.204-1.432-0.204-2.25c0-0.613,0-1.432,0.204-2.045C62.848,40.078,63.053,39.463,63.257,39.259L63.257,39.259z
			 M79.008,113.923c0-0.613,0-1.021-0.204-1.635c0-0.41-0.204-0.818-0.409-1.023c-0.204-0.408-0.409-0.616-0.818-0.818
			c-0.204-0.206-0.613-0.206-0.819-0.206c-0.817,0-1.432,0.408-1.841,1.024c-0.613,0.613-0.817,1.637-0.817,2.863
			c0,0.613,0.204,1.023,0.204,1.432c0.204,0.41,0.204,0.818,0.41,1.229c0.204,0.203,0.613,0.613,0.818,0.613
			c0.409,0.206,0.613,0.408,1.022,0.408s0.818-0.202,1.022-0.408c0.409-0.205,0.614-0.41,0.818-0.613
			c0.205-0.41,0.409-0.818,0.409-1.229C79.008,114.946,79.008,114.538,79.008,113.923L79.008,113.923z M49.143,90.603h-2.25v-7.774
			c0,0,0-0.202,0-0.407c-0.205,0-0.205-0.203-0.409-0.411c-0.204,0-0.204-0.202-0.409-0.202c-0.204,0-0.204-0.205-0.409-0.205
			h-0.818v-1.635h1.023c1.022,0,1.841,0.408,2.454,1.021c0.409,0.407,0.819,1.432,0.819,2.455V90.603L49.143,90.603z M61.621,85.489
			c0,0.818-0.205,1.432-0.409,2.048c-0.205,0.613-0.615,1.224-1.022,1.839c-0.409,0.411-0.818,0.819-1.433,1.024
			c-0.613,0.202-1.226,0.407-1.841,0.407c-0.818,0-1.432-0.205-2.045-0.407c-0.409-0.205-1.023-0.613-1.433-1.024
			c-0.408-0.615-0.613-1.226-1.022-1.839c-0.204-0.616-0.204-1.435-0.204-2.25c0-0.616,0-1.435,0.204-2.048
			c0.409-0.818,0.614-1.229,1.022-1.843c0.409-0.407,1.023-0.818,1.433-1.226c0.613-0.203,1.227-0.411,2.045-0.411
			c0.615,0,1.228,0.208,1.841,0.616c0.615,0.202,1.024,0.613,1.433,1.021c0.408,0.613,0.817,1.229,1.022,1.843
			C61.416,83.853,61.621,84.671,61.621,85.489L61.621,85.489z M59.371,85.287c0-0.616-0.206-1.027-0.206-1.64
			c-0.204-0.408-0.409-0.819-0.613-1.021c-0.206-0.408-0.409-0.616-0.613-0.818c-0.409-0.205-0.615-0.205-1.024-0.205
			c-0.818,0-1.432,0.205-1.841,1.023c-0.409,0.613-0.613,1.634-0.613,2.863c0,0.613,0,1.021,0.204,1.432
			c0,0.411,0.205,0.818,0.409,1.229c0.206,0.202,0.409,0.407,0.818,0.61c0.204,0.208,0.613,0.41,1.022,0.41
			c0.206,0,0.615-0.202,1.024-0.41c0.204-0.203,0.408-0.408,0.613-0.816c0.204-0.205,0.409-0.612,0.613-1.023
			C59.166,86.308,59.371,85.9,59.371,85.287L59.371,85.287z M68.781,90.603h-2.046v-7.774c0,0,0-0.202-0.204-0.407
			c0,0-0.206-0.203-0.206-0.411c-0.204,0-0.409-0.202-0.409-0.202c-0.204,0-0.409-0.205-0.613-0.205H64.69v-1.635h0.817
			c1.024,0,1.841,0.408,2.456,1.021c0.613,0.407,0.818,1.432,0.818,2.455V90.603L68.781,90.603z M81.258,85.489
			c0,0.818,0,1.432-0.204,2.048c-0.409,0.613-0.613,1.224-1.022,1.839c-0.409,0.411-1.023,0.819-1.432,1.024
			c-0.614,0.202-1.228,0.407-2.046,0.407c-0.613,0-1.228-0.205-1.841-0.407c-0.613-0.205-1.022-0.613-1.432-1.024
			c-0.41-0.615-0.819-1.226-1.024-1.839c-0.204-0.616-0.408-1.435-0.408-2.25c0-0.616,0.204-1.435,0.408-2.048
			c0.205-0.818,0.614-1.229,1.024-1.843c0.409-0.407,0.818-0.818,1.432-1.226c0.613-0.203,1.228-0.411,1.841-0.411
			c0.818,0,1.432,0.208,2.046,0.616c0.408,0.202,1.022,0.613,1.432,1.021c0.409,0.613,0.613,1.229,1.022,1.843
			C81.258,83.853,81.258,84.671,81.258,85.489L81.258,85.489z M79.008,85.287c0-0.616,0-1.027-0.204-1.64
			c0-0.408-0.204-0.819-0.409-1.021c-0.204-0.408-0.409-0.616-0.818-0.818c-0.204-0.205-0.613-0.205-0.819-0.205
			c-0.817,0-1.432,0.205-1.841,1.023c-0.613,0.613-0.817,1.634-0.817,2.863c0,0.613,0.204,1.021,0.204,1.432
			c0.204,0.411,0.204,0.818,0.41,1.229c0.204,0.202,0.613,0.407,0.818,0.61c0.409,0.208,0.613,0.41,1.022,0.41
			s0.818-0.202,1.022-0.41c0.409-0.203,0.614-0.408,0.818-0.816c0.205-0.205,0.409-0.612,0.409-1.023
			C79.008,86.308,79.008,85.9,79.008,85.287L79.008,85.287z M88.623,90.603h-2.25v-7.774c0,0,0-0.202,0-0.407
			c-0.206,0-0.206-0.203-0.409-0.411c0,0-0.204-0.202-0.409-0.202c-0.204,0-0.204-0.205-0.41-0.205h-0.818v-1.635h1.024
			c1.022,0,1.841,0.408,2.454,1.021c0.409,0.407,0.818,1.432,0.818,2.455V90.603L88.623,90.603z M101.101,85.489
			c0,0.818-0.206,1.432-0.409,2.048c-0.206,0.613-0.615,1.224-1.022,1.839c-0.409,0.411-0.819,0.819-1.433,1.024
			c-0.613,0.202-1.227,0.407-1.841,0.407c-0.819,0-1.432-0.205-1.841-0.407c-0.613-0.205-1.228-0.613-1.637-1.024
			c-0.408-0.615-0.613-1.226-0.817-1.839c-0.206-0.616-0.409-1.435-0.409-2.25c0-0.616,0.204-1.435,0.409-2.048
			c0.204-0.818,0.409-1.229,0.817-1.843c0.409-0.407,1.024-0.818,1.637-1.226c0.409-0.203,1.228-0.411,1.841-0.411
			c0.614,0,1.228,0.208,1.841,0.616c0.614,0.202,1.024,0.613,1.433,1.021c0.408,0.613,0.817,1.229,1.022,1.843
			C100.896,83.853,101.101,84.671,101.101,85.489L101.101,85.489z M98.851,85.287c0-0.616-0.205-1.027-0.205-1.64
			c-0.204-0.408-0.204-0.819-0.409-1.021c-0.204-0.408-0.613-0.616-0.817-0.818c-0.409-0.205-0.614-0.205-1.023-0.205
			c-0.819,0-1.432,0.205-1.841,1.023c-0.41,0.613-0.613,1.634-0.613,2.863c0,0.613,0,1.021,0.204,1.432
			c0,0.411,0.206,0.818,0.41,1.229c0.205,0.202,0.409,0.407,0.818,0.61c0.204,0.208,0.613,0.41,1.022,0.41s0.614-0.202,1.023-0.41
			c0.204-0.203,0.408-0.408,0.613-0.816c0.409-0.205,0.409-0.612,0.613-1.023C98.646,86.308,98.851,85.9,98.851,85.287
			L98.851,85.287z M108.261,90.603h-2.046v-7.774c0,0,0-0.202-0.204-0.407c0,0-0.205-0.203-0.205-0.411
			c-0.204,0-0.204-0.202-0.409-0.202c-0.204,0-0.409-0.205-0.409-0.205h-0.817v-1.635h0.817c1.228,0,1.841,0.408,2.455,1.021
			c0.613,0.407,0.819,1.432,0.819,2.455V90.603L108.261,90.603z M52.006,99.809c0,0.818-0.204,1.432-0.41,2.045
			c-0.204,0.818-0.409,1.227-1.022,1.842c-0.41,0.411-0.819,0.818-1.432,1.021c-0.613,0.41-1.228,0.41-1.841,0.41
			c-0.614,0-1.432,0-1.841-0.41c-0.614-0.203-1.228-0.61-1.637-1.021c-0.409-0.615-0.613-1.023-0.818-1.842
			c-0.204-0.613-0.409-1.432-0.409-2.045c0-0.818,0.205-1.637,0.409-2.25c0.205-0.613,0.409-1.227,0.818-1.84
			c0.409-0.41,1.022-0.818,1.637-1.023c0.409-0.411,1.227-0.411,1.841-0.411c0.613,0,1.432,0,1.841,0.411
			c0.613,0.205,1.228,0.613,1.637,1.227c0.408,0.41,0.613,1.023,0.817,1.637C51.802,98.377,52.006,98.99,52.006,99.809
			L52.006,99.809z M49.756,99.604c0-0.613,0-1.021-0.204-1.432c-0.206-0.613-0.206-1.021-0.409-1.227
			c-0.206-0.411-0.613-0.613-0.819-0.818c-0.204,0-0.613-0.205-1.022-0.205c-0.818,0-1.432,0.41-1.841,1.023
			s-0.614,1.637-0.614,2.863c0,0.613,0,1.023,0.205,1.432c0,0.613,0.204,0.818,0.409,1.227c0.204,0.41,0.409,0.613,0.819,0.818
			c0.204,0,0.613,0.205,1.022,0.205c0.41,0,0.613-0.205,1.022-0.41c0.206,0,0.613-0.408,0.819-0.613
			c0.204-0.408,0.204-0.818,0.409-1.227C49.756,100.832,49.756,100.217,49.756,99.604L49.756,99.604z M59.371,105.127h-2.25v-7.773
			c0-0.203,0-0.408-0.206-0.408c0-0.205-0.204-0.411-0.204-0.411c-0.206-0.202-0.206-0.202-0.41-0.407c-0.205,0-0.409,0-0.409,0
			h-0.818V94.49h1.022c1.024,0,1.842,0.205,2.25,0.818c0.615,0.613,1.024,1.432,1.024,2.455V105.127L59.371,105.127z M71.644,99.809
			c0,0.818,0,1.432-0.204,2.045c-0.205,0.818-0.614,1.227-1.023,1.842c-0.409,0.411-0.817,0.818-1.432,1.021
			c-0.613,0.41-1.228,0.41-2.045,0.41c-0.615,0-1.228,0-1.842-0.41c-0.613-0.203-1.022-0.61-1.432-1.021
			c-0.409-0.615-0.818-1.023-1.022-1.842c-0.204-0.613-0.204-1.432-0.204-2.045c0-0.818,0-1.637,0.204-2.25s0.613-1.227,1.022-1.84
			c0.409-0.41,0.818-0.818,1.432-1.023c0.615-0.411,1.228-0.411,2.046-0.411c0.613,0,1.228,0,1.841,0.411
			c0.614,0.205,1.022,0.613,1.432,1.227c0.409,0.41,0.818,1.023,1.023,1.637C71.644,98.377,71.644,98.99,71.644,99.809
			L71.644,99.809z M69.394,99.604c0-0.613,0-1.021,0-1.432c-0.204-0.613-0.409-1.021-0.613-1.227
			c-0.205-0.411-0.409-0.613-0.615-0.818c-0.409,0-0.613-0.205-1.022-0.205c-0.819,0-1.432,0.41-1.841,1.023
			c-0.409,0.613-0.613,1.637-0.613,2.863c0,0.613,0,1.023,0,1.432c0.204,0.613,0.408,0.818,0.613,1.227
			c0.204,0.41,0.41,0.613,0.613,0.818c0.409,0,0.818,0.205,1.024,0.205c0.408,0,0.817-0.205,1.022-0.41
			c0.409,0,0.613-0.408,0.818-0.613c0.204-0.408,0.409-0.818,0.613-1.227C69.394,100.832,69.394,100.217,69.394,99.604
			L69.394,99.604z M79.008,105.127h-2.045v-7.773c0-0.203-0.206-0.408-0.206-0.408c0-0.205-0.204-0.411-0.408-0.411
			c0-0.202-0.205-0.202-0.409-0.407c0,0-0.206,0-0.409,0h-0.615V94.49h0.818c1.022,0,1.841,0.205,2.456,0.818
			c0.613,0.613,0.817,1.432,0.817,2.455V105.127L79.008,105.127z M91.486,99.809c0,0.818-0.204,1.432-0.409,2.045
			c-0.204,0.818-0.409,1.227-0.817,1.842c-0.41,0.411-1.024,0.818-1.637,1.021c-0.409,0.41-1.228,0.41-1.841,0.41
			c-0.615,0-1.228,0-1.841-0.41c-0.615-0.203-1.024-0.61-1.432-1.021c-0.409-0.615-0.818-1.023-1.024-1.842
			c-0.204-0.613-0.409-1.432-0.409-2.045c0-0.818,0.205-1.637,0.409-2.25c0.206-0.613,0.615-1.227,1.024-1.84
			c0.408-0.41,0.817-0.818,1.432-1.023c0.613-0.411,1.226-0.411,1.841-0.411c0.818,0,1.432,0,1.841,0.411
			c0.613,0.205,1.228,0.613,1.637,1.227c0.408,0.41,0.613,1.023,0.817,1.637C91.282,98.377,91.486,98.99,91.486,99.809
			L91.486,99.809z M89.236,99.604c0-0.613,0-1.021-0.204-1.432c0-0.613-0.205-1.021-0.409-1.227
			c-0.205-0.411-0.409-0.613-0.818-0.818c-0.204,0-0.613-0.205-0.818-0.205c-0.819,0-1.636,0.41-2.045,1.023
			s-0.615,1.637-0.615,2.863c0,0.613,0,1.023,0.206,1.432c0.204,0.613,0.204,0.818,0.409,1.227c0.204,0.41,0.409,0.613,0.818,0.818
			c0.204,0,0.613,0.205,1.022,0.205s0.613-0.205,1.022-0.41c0.205,0,0.613-0.408,0.818-0.613c0.204-0.408,0.409-0.818,0.409-1.227
			C89.236,100.832,89.236,100.217,89.236,99.604L89.236,99.604z M98.851,105.127h-2.25v-7.773c0-0.203,0-0.408,0-0.408
			c-0.205-0.205-0.205-0.411-0.409-0.411c-0.205-0.202-0.205-0.202-0.409-0.407c-0.206,0-0.206,0-0.409,0h-0.818V94.49h1.022
			c1.024,0,1.842,0.205,2.456,0.818c0.409,0.613,0.818,1.432,0.818,2.455V105.127L98.851,105.127z M109.079,99.604
			c0-0.613-0.206-1.021-0.206-1.432c-0.204-0.613-0.409-1.021-0.613-1.227c-0.206-0.411-0.41-0.613-0.615-0.818
			c-0.409,0-0.613-0.205-1.022-0.205c-0.818,0-1.432,0.41-1.841,1.023s-0.613,1.637-0.613,2.863c0,0.613,0,1.023,0.204,1.432
			c0,0.613,0.204,0.818,0.409,1.227c0.204,0.41,0.409,0.613,0.818,0.818c0.204,0,0.613,0.205,1.022,0.205
			c0.204,0,0.613-0.205,1.022-0.41c0.205,0,0.409-0.408,0.615-0.613c0.204-0.408,0.409-0.818,0.613-1.227
			C108.874,100.832,109.079,100.217,109.079,99.604L109.079,99.604z M52.006,71.375c0,0.613-0.204,1.226-0.41,1.841
			c-0.204,0.816-0.409,1.228-1.022,1.841c-0.41,0.407-0.819,0.818-1.432,1.021c-0.613,0.411-1.228,0.411-1.841,0.411
			c-0.614,0-1.432,0-1.841-0.411c-0.614-0.202-1.228-0.613-1.637-1.021c-0.409-0.613-0.613-1.229-0.818-1.841
			c-0.204-0.615-0.409-1.228-0.409-2.047c0-0.613,0.205-1.432,0.409-2.044c0.205-0.615,0.409-1.228,0.818-1.841
			c0.409-0.41,1.022-0.819,1.637-1.024c0.409-0.409,1.227-0.409,1.841-0.409c0.613,0,1.432,0,1.841,0.409
			c0.613,0.205,1.228,0.614,1.637,1.024c0.408,0.613,0.613,1.226,0.817,1.841C51.802,69.738,52.006,70.557,52.006,71.375
			L52.006,71.375z M49.756,71.17c0-0.613,0-1.022-0.204-1.635c-0.206-0.409-0.206-0.818-0.409-1.024
			c-0.206-0.409-0.613-0.613-0.819-0.818c-0.204-0.204-0.613-0.204-1.022-0.204c-0.818,0-1.432,0.409-1.841,1.022
			c-0.409,0.615-0.614,1.637-0.614,2.865c0,0.613,0,0.817,0.205,1.226c0,0.615,0.204,0.818,0.409,1.227
			c0.204,0.205,0.409,0.616,0.819,0.616c0.204,0.202,0.613,0.407,1.022,0.407c0.41,0,0.613-0.205,1.022-0.407
			c0.206-0.206,0.613-0.411,0.819-0.616c0.204-0.408,0.204-0.817,0.409-1.227C49.756,71.989,49.756,71.785,49.756,71.17
			L49.756,71.17z M59.371,76.283h-2.25v-7.567c0,0,0-0.206-0.206-0.41c0,0-0.204-0.205-0.204-0.409c-0.206,0-0.206-0.205-0.41-0.205
			c-0.205,0-0.409,0-0.409,0h-0.818v-1.841h1.022c1.024,0,1.842,0.409,2.25,1.023c0.615,0.613,1.024,1.432,1.024,2.454V76.283
			L59.371,76.283z M71.644,71.375c0,0.613,0,1.226-0.204,1.841c-0.205,0.816-0.614,1.228-1.023,1.841
			c-0.409,0.407-0.817,0.818-1.432,1.021c-0.613,0.411-1.228,0.411-2.045,0.411c-0.615,0-1.228,0-1.842-0.411
			c-0.613-0.202-1.022-0.613-1.432-1.021c-0.409-0.613-0.818-1.229-1.022-1.841c-0.204-0.615-0.204-1.228-0.204-2.047
			c0-0.613,0-1.432,0.204-2.044c0.204-0.615,0.613-1.228,1.022-1.841c0.409-0.41,0.818-0.819,1.432-1.024
			c0.615-0.409,1.228-0.409,2.046-0.409c0.613,0,1.228,0,1.841,0.409c0.614,0.205,1.022,0.614,1.432,1.024
			c0.409,0.613,0.818,1.226,1.023,1.841C71.644,69.738,71.644,70.557,71.644,71.375L71.644,71.375z M69.394,71.17
			c0-0.613,0-1.022,0-1.635c-0.204-0.409-0.409-0.818-0.613-1.024c-0.205-0.409-0.409-0.613-0.615-0.818
			c-0.409-0.204-0.613-0.204-1.022-0.204c-0.819,0-1.432,0.409-1.841,1.022c-0.409,0.615-0.613,1.637-0.613,2.865
			c0,0.613,0,0.817,0,1.226c0.204,0.615,0.408,0.818,0.613,1.227c0.204,0.205,0.41,0.616,0.613,0.616
			c0.409,0.202,0.818,0.407,1.024,0.407c0.408,0,0.817-0.205,1.022-0.407c0.409-0.206,0.613-0.411,0.818-0.616
			c0.204-0.408,0.409-0.817,0.613-1.227C69.394,71.989,69.394,71.785,69.394,71.17L69.394,71.17z M79.008,76.283h-2.045v-7.567
			c0,0-0.206-0.206-0.206-0.41c0,0-0.204-0.205-0.408-0.409c0,0-0.205-0.205-0.409-0.205c0,0-0.206,0-0.409,0h-0.615v-1.841h0.818
			c1.022,0,1.841,0.409,2.456,1.023c0.613,0.613,0.817,1.432,0.817,2.454V76.283L79.008,76.283z M91.486,71.375
			c0,0.613-0.204,1.226-0.409,1.841c-0.204,0.816-0.409,1.228-0.817,1.841c-0.41,0.407-1.024,0.818-1.637,1.021
			c-0.409,0.411-1.228,0.411-1.841,0.411c-0.615,0-1.228,0-1.841-0.411c-0.615-0.202-1.024-0.613-1.432-1.021
			c-0.409-0.613-0.818-1.229-1.024-1.841c-0.204-0.615-0.409-1.228-0.409-2.047c0-0.613,0.205-1.432,0.409-2.044
			c0.206-0.615,0.615-1.228,1.024-1.841c0.408-0.41,0.817-0.819,1.432-1.024c0.613-0.409,1.226-0.409,1.841-0.409
			c0.818,0,1.432,0,1.841,0.409c0.613,0.205,1.228,0.614,1.637,1.024c0.408,0.613,0.613,1.226,0.817,1.841
			C91.282,69.738,91.486,70.557,91.486,71.375L91.486,71.375z M89.236,71.17c0-0.613,0-1.022-0.204-1.635
			c0-0.409-0.205-0.818-0.409-1.024c-0.205-0.409-0.409-0.613-0.818-0.818c-0.204-0.204-0.613-0.204-0.818-0.204
			c-0.819,0-1.636,0.409-2.045,1.022c-0.409,0.615-0.615,1.637-0.615,2.865c0,0.613,0,0.817,0.206,1.226
			c0.204,0.615,0.204,0.818,0.409,1.227c0.204,0.205,0.409,0.616,0.818,0.616c0.204,0.202,0.613,0.407,1.022,0.407
			s0.613-0.205,1.022-0.407c0.205-0.206,0.613-0.411,0.818-0.616c0.204-0.408,0.409-0.817,0.409-1.227
			C89.236,71.989,89.236,71.785,89.236,71.17L89.236,71.17z M98.851,76.283h-2.25v-7.567c0,0,0-0.206,0-0.41
			c-0.205,0-0.205-0.205-0.409-0.409c-0.205,0-0.205-0.205-0.409-0.205c-0.206,0-0.206,0-0.409,0h-0.818v-1.841h1.022
			c1.024,0,1.842,0.409,2.456,1.023c0.409,0.613,0.818,1.432,0.818,2.454V76.283L98.851,76.283z M111.329,71.375
			c0,0.613-0.205,1.226-0.409,1.841c-0.206,0.816-0.615,1.228-1.024,1.841c-0.409,0.407-0.817,0.818-1.432,1.021
			c-0.613,0.411-1.228,0.411-1.841,0.411c-0.818,0-1.432,0-2.046-0.411c-0.408-0.202-1.022-0.613-1.432-1.021
			c-0.409-0.613-0.613-1.229-1.022-1.841c-0.204-0.615-0.204-1.228-0.204-2.047c0-0.613,0-1.432,0.204-2.044
			c0.409-0.615,0.613-1.228,1.022-1.841c0.41-0.41,1.024-0.819,1.432-1.024c0.615-0.409,1.228-0.409,2.046-0.409
			c0.613,0,1.228,0,1.841,0.409c0.615,0.205,1.022,0.614,1.432,1.024c0.409,0.613,0.818,1.226,1.024,1.841
			C111.124,69.738,111.329,70.557,111.329,71.375L111.329,71.375z M109.079,71.17c0-0.613-0.206-1.022-0.206-1.635
			c-0.204-0.409-0.409-0.818-0.613-1.024c-0.206-0.409-0.41-0.613-0.615-0.818c-0.409-0.204-0.613-0.204-1.022-0.204
			c-0.818,0-1.432,0.409-1.841,1.022c-0.409,0.615-0.613,1.637-0.613,2.865c0,0.613,0,0.817,0.204,1.226
			c0,0.615,0.204,0.818,0.409,1.227c0.204,0.205,0.409,0.616,0.818,0.616c0.204,0.202,0.613,0.407,1.022,0.407
			c0.204,0,0.613-0.205,1.022-0.407c0.205-0.206,0.409-0.411,0.615-0.616c0.204-0.408,0.409-0.817,0.613-1.227
			C108.874,71.989,109.079,71.785,109.079,71.17L109.079,71.17z M49.143,62.17h-2.25v-7.773c0,0,0-0.206,0-0.409
			c-0.205-0.206-0.205-0.206-0.409-0.409c-0.204,0-0.204-0.204-0.409-0.204c-0.204-0.205-0.204-0.205-0.409-0.205h-0.818v-1.637
			h1.023c1.022,0,1.841,0.409,2.454,0.818c0.409,0.615,0.819,1.432,0.819,2.66V62.17L49.143,62.17z M61.621,57.056
			c0,0.613-0.205,1.432-0.409,2.045c-0.205,0.615-0.615,1.228-1.022,1.637c-0.409,0.613-0.818,1.022-1.433,1.228
			c-0.613,0.204-1.226,0.409-1.841,0.409c-0.818,0-1.432-0.205-2.045-0.409c-0.409-0.206-1.023-0.615-1.433-1.228
			c-0.408-0.41-0.613-1.022-1.022-1.637c-0.204-0.613-0.204-1.432-0.204-2.25s0-1.432,0.204-2.045
			c0.409-0.818,0.614-1.228,1.022-1.841c0.409-0.409,1.023-0.818,1.433-1.228c0.613-0.206,1.227-0.41,2.045-0.41
			c0.615,0,1.228,0.204,1.841,0.41c0.615,0.409,1.024,0.818,1.433,1.228c0.408,0.613,0.817,1.226,1.022,1.841
			C61.416,55.419,61.621,56.238,61.621,57.056L61.621,57.056z M59.371,56.851c0-0.613-0.206-1.227-0.206-1.636
			c-0.204-0.409-0.409-0.818-0.613-1.024c-0.206-0.409-0.409-0.613-0.613-0.817c-0.409-0.205-0.615-0.205-1.024-0.205
			c-0.818,0-1.432,0.205-1.841,1.022c-0.409,0.615-0.613,1.637-0.613,2.865c0,0.613,0,1.022,0.204,1.432
			c0,0.409,0.205,0.819,0.409,1.228c0.206,0.204,0.409,0.409,0.818,0.613c0.204,0.204,0.613,0.204,1.022,0.204
			c0.206,0,0.615,0,1.024-0.204c0.204-0.204,0.408-0.409,0.613-0.818c0.204-0.204,0.409-0.613,0.613-1.228
			C59.166,57.875,59.371,57.465,59.371,56.851L59.371,56.851z M68.781,62.17h-2.046v-7.773c0,0,0-0.206-0.204-0.409
			c0-0.206-0.206-0.206-0.206-0.409c-0.204,0-0.409-0.204-0.409-0.204c-0.204-0.205-0.409-0.205-0.613-0.205H64.69v-1.637h0.817
			c1.024,0,1.841,0.409,2.456,0.818c0.613,0.615,0.818,1.432,0.818,2.66V62.17L68.781,62.17z M81.258,57.056
			c0,0.613,0,1.432-0.204,2.045c-0.409,0.615-0.613,1.228-1.022,1.637c-0.409,0.613-1.023,1.022-1.432,1.228
			c-0.614,0.204-1.228,0.409-2.046,0.409c-0.613,0-1.228-0.205-1.841-0.409c-0.613-0.206-1.022-0.615-1.432-1.228
			c-0.41-0.41-0.819-1.022-1.024-1.637c-0.204-0.613-0.408-1.432-0.408-2.25s0.204-1.432,0.408-2.045
			c0.205-0.818,0.614-1.228,1.024-1.841c0.409-0.409,0.818-0.818,1.432-1.228c0.613-0.206,1.228-0.41,1.841-0.41
			c0.818,0,1.432,0.204,2.046,0.41c0.408,0.409,1.022,0.818,1.432,1.228c0.409,0.613,0.613,1.226,1.022,1.841
			C81.258,55.419,81.258,56.238,81.258,57.056L81.258,57.056z M79.008,56.851c0-0.613,0-1.227-0.204-1.636
			c0-0.409-0.204-0.818-0.409-1.024c-0.204-0.409-0.409-0.613-0.818-0.817c-0.204-0.205-0.613-0.205-0.819-0.205
			c-0.817,0-1.432,0.205-1.841,1.022c-0.613,0.615-0.817,1.637-0.817,2.865c0,0.613,0.204,1.022,0.204,1.432
			c0.204,0.409,0.204,0.819,0.41,1.228c0.204,0.204,0.613,0.409,0.818,0.613c0.409,0.204,0.613,0.204,1.022,0.204
			s0.818,0,1.022-0.204c0.409-0.204,0.614-0.409,0.818-0.818c0.205-0.204,0.409-0.613,0.409-1.228
			C79.008,57.875,79.008,57.465,79.008,56.851L79.008,56.851z M88.623,62.17h-2.25v-7.773c0,0,0-0.206,0-0.409
			c-0.206-0.206-0.206-0.206-0.409-0.409c0,0-0.204-0.204-0.409-0.204c-0.204-0.205-0.204-0.205-0.41-0.205h-0.818v-1.637h1.024
			c1.022,0,1.841,0.409,2.454,0.818c0.409,0.615,0.818,1.432,0.818,2.66V62.17L88.623,62.17z M101.101,57.056
			c0,0.613-0.206,1.432-0.409,2.045c-0.206,0.615-0.615,1.228-1.022,1.637c-0.409,0.613-0.819,1.022-1.433,1.228
			c-0.613,0.204-1.227,0.409-1.841,0.409c-0.819,0-1.432-0.205-1.841-0.409c-0.613-0.206-1.228-0.615-1.637-1.228
			c-0.408-0.41-0.613-1.022-0.817-1.637c-0.206-0.613-0.409-1.432-0.409-2.25s0.204-1.432,0.409-2.045
			c0.204-0.818,0.409-1.228,0.817-1.841c0.409-0.409,1.024-0.818,1.637-1.228c0.409-0.206,1.228-0.41,1.841-0.41
			c0.614,0,1.228,0.204,1.841,0.41c0.614,0.409,1.024,0.818,1.433,1.228c0.408,0.613,0.817,1.226,1.022,1.841
			C100.896,55.419,101.101,56.238,101.101,57.056L101.101,57.056z M98.851,56.851c0-0.613-0.205-1.227-0.205-1.636
			c-0.204-0.409-0.204-0.818-0.409-1.024c-0.204-0.409-0.613-0.613-0.817-0.817c-0.409-0.205-0.614-0.205-1.023-0.205
			c-0.819,0-1.432,0.205-1.841,1.022c-0.41,0.615-0.613,1.637-0.613,2.865c0,0.613,0,1.022,0.204,1.432
			c0,0.409,0.206,0.819,0.41,1.228c0.205,0.204,0.409,0.409,0.818,0.613c0.204,0.204,0.613,0.204,1.022,0.204s0.614,0,1.023-0.204
			c0.204-0.204,0.408-0.409,0.613-0.818c0.409-0.204,0.409-0.613,0.613-1.228C98.646,57.875,98.851,57.465,98.851,56.851
			L98.851,56.851z M69.394,42.532c0-0.613,0-1.022,0-1.636c-0.204-0.409-0.409-0.818-0.613-1.023
			c-0.205-0.409-0.409-0.613-0.615-0.817c-0.409-0.205-0.613-0.205-1.022-0.205c-0.819,0-1.432,0.409-1.841,1.022
			c-0.409,0.614-0.613,1.637-0.613,2.865c0,0.613,0,1.022,0,1.432c0.204,0.409,0.408,0.818,0.613,1.228
			c0.204,0.204,0.41,0.613,0.613,0.613c0.409,0.205,0.818,0.409,1.024,0.409c0.408,0,0.817-0.204,1.022-0.409
			c0.409-0.204,0.613-0.409,0.818-0.819c0.204-0.204,0.409-0.613,0.613-1.022C69.394,43.556,69.394,43.146,69.394,42.532z"/>
		<path fill-rule="evenodd" clip-rule="evenodd" fill="#FFFFFF" d="M115.215,115.56c16.774-17.796,19.842-45.208,6.137-66.687
			c-13.91-21.478-40.298-30.07-63.413-22.092l4.908,7.774c18.819-5.319,39.685,1.841,50.936,19.227
			c11.25,17.184,9.206,39.07-3.478,54.006L115.215,115.56z"/>
		<path fill-rule="evenodd" clip-rule="evenodd" fill="#FFFFFF" d="M27.051,17.371C5.572,40.078,1.685,75.058,19.277,102.467
			c13.5,20.867,36.207,32.117,59.323,31.709c7.16,0.203,14.523-1.026,21.478-3.276l-0.204-0.202l0.204-0.205l-6.341-9.819
			c-11.25,3.273-22.91,2.863-33.751-0.613c-10.229-3.887-19.433-11.045-25.774-20.864c-13.093-20.456-10.843-46.23,4.091-63.823
			l-5.115-7.977h0.206L27.051,17.371z"/>
		<polygon fill-rule="evenodd" clip-rule="evenodd" fill="#FFFFFF" points="46.483,9.802 45.052,43.35 14.367,13.689 		"/>
	</g>
	<g>
		<path fill="#FFFFFF" d="M148.678,39.813h38.829v10.916h-26.3v16.54h15.177v10.917h-15.177v24.894h-12.529V39.813z"/>
		<path fill="#FFFFFF" d="M187.088,65.367c2.232-2.647,4.906-4.665,8.022-6.058c3.114-1.391,6.451-2.088,10.006-2.088
			c3.694,0,6.947,0.662,9.759,1.985c2.04,0.992,3.811,2.64,5.316,4.941c1.501,2.301,2.253,5.189,2.253,8.664v21.007
			c0,1.32,0.163,2.922,0.496,4.794c0.33,1.876,0.688,3.366,1.074,4.468h-9.966c-0.469-1.516-0.828-3.061-1.075-4.631
			c-2.041,1.792-4.156,3.141-6.348,4.051s-4.458,1.365-6.801,1.365c-4.082,0-7.437-1.232-10.07-3.701
			c-2.631-2.467-3.948-5.396-3.948-8.787c0-2.369,0.606-4.617,1.819-6.739c1.214-2.123,2.991-3.976,5.335-5.563
			c2.342-1.584,5.292-2.857,8.848-3.823c2.675-0.718,6.272-1.323,10.793-1.819c0-1.903-0.165-3.281-0.495-4.136
			c-0.497-1.323-1.365-2.357-2.605-3.102c-1.24-0.744-2.771-1.117-4.59-1.117c-4.384,0-8.063,1.999-11.041,5.997L187.088,65.367z
			 M212.601,91.172v-11.29c-6.588,1.24-11.109,2.936-13.563,5.086c-1.902,1.626-2.853,3.46-2.853,5.499
			c0,1.653,0.544,3.019,1.633,4.095c1.089,1.074,2.474,1.612,4.156,1.612c1.433,0,3.04-0.419,4.816-1.263
			C208.57,94.071,210.506,92.825,212.601,91.172z"/>
		<path fill="#FFFFFF" d="M237.746,90.839c2.259,1.712,4.287,2.91,6.079,3.599c1.792,0.69,3.651,1.034,5.582,1.034
			c2.509,0,4.362-0.463,5.561-1.387c1.201-0.921,1.801-1.976,1.801-3.163c0-1.102-0.538-2.122-1.615-3.061
			c-1.073-0.935-3.404-1.709-6.986-2.313c-5.929-1.049-10.118-2.827-12.571-5.336c-2.455-2.508-3.682-5.499-3.682-8.972
			c0-3.667,1.602-6.92,4.798-9.759c3.198-2.838,7.374-4.259,12.529-4.259c2.949,0,5.74,0.441,8.373,1.324s5.479,2.563,8.54,5.044
			l-6.617,5.542c-3.168-1.903-5.354-3.067-6.554-3.495c-1.198-0.427-2.405-0.641-3.617-0.641c-2.039,0-3.682,0.537-4.922,1.612
			s-1.859,2.289-1.859,3.639c0,1.214,0.508,2.289,1.529,3.227c1.021,0.938,3.543,1.834,7.568,2.687
			c5.565,1.159,9.453,2.566,11.658,4.22c3.088,2.261,4.634,5.266,4.634,9.015c0,3.998-1.601,7.402-4.797,10.213
			c-3.199,2.813-7.83,4.217-13.896,4.217c-3.804,0-7.133-0.641-9.985-1.923c-2.854-1.281-5.674-3.368-8.456-6.265L237.746,90.839z"
			/>
		<path fill="#FFFFFF" d="M280.401,43.452h11.414v14.555h7.938v8.188h-7.938v24.067c0,1.296,0.475,2.3,1.427,3.019
			c0.951,0.716,3.121,1.115,6.512,1.198v9.303c-2.536,0.056-3.873,0.084-4.01,0.084c-3.557,0-6.375-0.47-8.456-1.407
			c-2.081-0.935-3.749-2.508-5.003-4.714c-1.257-2.203-1.884-4.7-1.884-7.482V66.194h-6.905v-8.188h6.905V43.452z"/>
		<path fill="#FFFFFF" d="M312.425,39.813h13.153l25.964,42.466V39.813h12.322v63.267h-12.322l-26.671-44.122v44.122h-12.446V39.813
			z"/>
		<path fill="#FFFFFF" d="M372.992,39.813h22.992c5.457,0,10.338,1.33,14.638,3.99c4.301,2.661,7.575,6.424,9.822,11.289
			c2.244,4.865,3.368,10.138,3.368,15.816c0,5.652-0.971,10.744-2.913,15.28c-1.945,4.533-4.434,8.099-7.466,10.688
			c-2.179,1.848-5.003,3.343-8.477,4.486c-3.474,1.146-7.139,1.718-10.998,1.718h-20.967V39.813z M385.604,50.481v41.517h8.602
			c3.06,0,5.782-0.821,8.168-2.461c2.383-1.64,4.223-3.798,5.519-6.473c1.875-3.804,2.813-7.952,2.813-12.445
			c0-6.121-1.778-11.007-5.336-14.659c-3.557-3.653-8.118-5.479-13.687-5.479H385.604z"/>
	</g>
</g>
</svg>
