<?xml version="1.0" encoding="UTF-8" standalone="no"?>
<!-- Created with Inkscape (http://www.inkscape.org/) -->

<svg
   xmlns:dc="http://purl.org/dc/elements/1.1/"
   xmlns:cc="http://creativecommons.org/ns#"
   xmlns:rdf="http://www.w3.org/1999/02/22-rdf-syntax-ns#"
   xmlns:svg="http://www.w3.org/2000/svg"
   xmlns="http://www.w3.org/2000/svg"
   xmlns:xlink="http://www.w3.org/1999/xlink"
   xmlns:sodipodi="http://sodipodi.sourceforge.net/DTD/sodipodi-0.dtd"
   xmlns:inkscape="http://www.inkscape.org/namespaces/inkscape"
   width="144"
   height="144"
   id="svg3019"
   version="1.1"
   inkscape:version="0.48.2 r9819"
   sodipodi:docname="finfore-touch-icon.svg"
   inkscape:export-filename="D:\Dev\finfore.net\dev\apple-touch-icon-114x114-precomposed.png"
   inkscape:export-xdpi="69.56768"
   inkscape:export-ydpi="69.56768">
  <defs
     id="defs3021">
    <radialGradient
       id="SVGID_1_"
       cx="74.008301"
       cy="77.670898"
       r="58.6096"
       gradientUnits="userSpaceOnUse">
      <stop
         offset="0"
         style="stop-color:#00AEEF"
         id="stop10" />
      <stop
         offset="0.28"
         style="stop-color:#00AEEF"
         id="stop12" />
      <stop
         offset="1"
         style="stop-color:#203A4F"
         id="stop14" />
    </radialGradient>
    <radialGradient
       inkscape:collect="always"
       xlink:href="#SVGID_1_"
       id="radialGradient3162"
       gradientUnits="userSpaceOnUse"
       cx="74.008301"
       cy="77.670898"
       r="58.6096" />
  </defs>
  <sodipodi:namedview
     id="base"
     pagecolor="#ffffff"
     bordercolor="#666666"
     borderopacity="1.0"
     inkscape:pageopacity="0.0"
     inkscape:pageshadow="2"
     inkscape:zoom="0.98994949"
     inkscape:cx="116.27862"
     inkscape:cy="85.350237"
     inkscape:document-units="px"
     inkscape:current-layer="layer1"
     showgrid="false"
     inkscape:window-width="1280"
     inkscape:window-height="738"
     inkscape:window-x="-8"
     inkscape:window-y="-8"
     inkscape:window-maximized="1" />
  <metadata
     id="metadata3024">
    <rdf:RDF>
      <cc:Work
         rdf:about="">
        <dc:format>image/svg+xml</dc:format>
        <dc:type
           rdf:resource="http://purl.org/dc/dcmitype/StillImage" />
        <dc:title></dc:title>
      </cc:Work>
    </rdf:RDF>
  </metadata>
  <g
     inkscape:label="Layer 1"
     inkscape:groupmode="layer"
     id="layer1"
     transform="translate(0,-908.36218)">
    <rect
       style="fill:#203a4f;fill-opacity:1;stroke:none"
       id="rect3160"
       width="147.48227"
       height="147.48227"
       x="0"
       y="908.36218" />
    <g
       id="g3031"
       transform="matrix(0.88387598,0,0,0.88387598,12.68292,918.46437)">
      <radialGradient
         id="radialGradient3033"
         cx="74.008301"
         cy="77.670898"
         r="58.6096"
         gradientUnits="userSpaceOnUse">
        <stop
           offset="0"
           style="stop-color:#00AEEF"
           id="stop3035" />
        <stop
           offset="0.28"
           style="stop-color:#00AEEF"
           id="stop3037" />
        <stop
           offset="1"
           style="stop-color:#203A4F"
           id="stop3039" />
      </radialGradient>
      <path
         d="M 75.531,37.418 C 75.94,37.418 76.144,37.418 76.553,37.418 C 77.166,37.418 77.781,37.827 78.19,38.236 C 78.803,38.645 79.007,39.668 79.007,40.69 V 47.85 H 76.962 V 40.077 C 76.962,40.077 76.756,39.872 76.756,39.668 C 76.756,39.668 76.552,39.463 76.348,39.259 C 76.348,39.259 76.143,39.055 75.939,39.055 C 75.939,39.055 75.733,38.85 75.53,38.85 H 74.915 V 37.418 C 75.122,37.418 75.326,37.418 75.531,37.418 L 75.531,37.418 z M 83.917,38.237 C 84.735,38.441 85.759,38.646 86.576,38.85 C 85.963,38.85 85.35,39.259 84.941,39.872 C 84.532,40.486 84.326,41.509 84.326,42.737 C 84.326,43.35 84.326,43.759 84.532,44.169 C 84.736,44.578 84.736,44.987 84.941,45.397 C 85.145,45.601 85.35,46.01 85.759,46.01 C 85.963,46.215 86.372,46.419 86.781,46.419 C 87.19,46.419 87.394,46.215 87.803,46.01 C 88.008,45.806 88.416,45.601 88.621,45.191 C 88.825,44.987 89.03,44.578 89.03,44.169 C 89.234,43.556 89.234,43.147 89.234,42.532 C 89.234,41.919 89.234,41.51 89.03,40.896 C 89.03,40.487 88.825,40.078 88.621,39.873 C 88.416,39.669 88.416,39.464 88.212,39.26 C 89.234,39.669 90.258,40.078 91.075,40.488 L 91.075,40.488 C 91.28,41.101 91.484,41.92 91.484,42.738 C 91.484,43.556 91.28,44.17 91.075,44.782 C 90.871,45.397 90.666,46.01 90.258,46.623 C 89.848,47.033 89.234,47.442 88.621,47.647 C 88.212,47.851 87.393,48.056 86.78,48.056 C 86.165,48.056 85.552,47.851 84.939,47.647 C 84.324,47.442 83.915,47.033 83.507,46.623 C 83.098,46.01 82.689,45.397 82.483,44.782 C 82.279,44.169 82.074,43.35 82.074,42.532 C 82.074,41.919 82.279,41.1 82.483,40.487 C 82.689,39.873 83.098,39.259 83.507,38.646 C 83.509,38.441 83.713,38.441 83.917,38.237 L 83.917,38.237 z M 96.601,43.146 C 97.419,43.555 98.033,44.168 98.851,44.578 V 47.85 H 96.601 V 43.146 L 96.601,43.146 z M 107.033,51.941 C 107.442,52.556 107.646,52.965 108.055,53.578 C 108.261,53.987 108.261,54.396 108.261,55.01 V 62.17 H 106.215 V 54.397 C 106.215,54.397 106.215,54.191 106.011,53.988 C 106.011,53.782 105.806,53.782 105.806,53.579 C 105.602,53.579 105.602,53.375 105.397,53.375 C 105.193,53.17 104.988,53.17 104.988,53.17 H 104.171 V 51.533 H 104.988 C 105.805,51.532 106.419,51.738 107.033,51.941 L 107.033,51.941 z M 116.442,79.76 C 116.442,80.376 116.442,80.989 116.442,81.603 C 116.237,81.603 116.237,81.603 116.237,81.603 C 115.42,81.603 114.805,81.808 114.396,82.626 C 113.987,83.239 113.783,84.26 113.783,85.489 C 113.783,86.102 113.783,86.51 113.783,86.921 C 113.987,87.332 114.192,87.739 114.396,88.15 C 114.601,88.352 114.805,88.557 115.01,88.76 L 115.214,88.968 C 115.01,89.375 114.805,89.989 114.601,90.602 C 114.396,90.602 114.396,90.4 114.192,90.4 C 113.579,90.195 113.17,89.787 112.76,89.376 C 112.351,88.761 111.942,88.15 111.736,87.537 C 111.532,86.921 111.532,86.102 111.532,85.287 C 111.532,84.671 111.532,83.852 111.736,83.239 C 111.942,82.421 112.351,82.01 112.76,81.396 C 113.169,80.989 113.578,80.578 114.192,80.17 C 114.805,79.967 115.42,79.759 116.237,79.759 H 116.442 L 116.442,79.76 z M 111.124,98.582 C 109.692,100.832 108.261,103.08 106.419,105.127 C 105.805,105.127 105.191,105.127 104.577,104.717 C 104.169,104.514 103.555,104.107 103.145,103.696 C 102.736,103.081 102.532,102.673 102.123,101.854 C 101.919,101.241 101.919,100.422 101.919,99.809 C 101.919,98.991 101.919,98.172 102.123,97.559 C 102.532,96.946 102.736,96.332 103.145,95.719 C 103.555,95.309 104.169,94.901 104.577,94.696 C 105.192,94.285 105.805,94.285 106.623,94.285 C 107.236,94.285 107.851,94.285 108.464,94.696 C 109.079,94.901 109.486,95.309 109.896,95.923 C 110.305,96.333 110.714,96.946 110.92,97.56 C 110.92,97.966 111.124,98.172 111.124,98.582 L 111.124,98.582 z M 100.282,110.856 C 99.669,111.264 99.054,111.671 98.645,112.08 C 98.441,111.878 98.236,111.47 98.236,111.265 C 98.032,110.857 97.623,110.649 97.419,110.447 C 97.01,110.241 96.805,110.241 96.396,110.241 C 95.577,110.241 94.964,110.649 94.555,111.265 C 94.145,111.878 93.942,112.902 93.942,114.128 C 93.942,114.33 93.942,114.538 93.942,114.946 C 93.327,115.151 92.51,115.559 91.896,115.764 C 91.692,115.356 91.692,114.741 91.692,113.922 C 91.692,113.309 91.896,112.49 92.101,111.877 C 92.305,111.264 92.51,110.648 92.918,110.037 C 93.327,109.627 93.942,109.216 94.555,109.014 C 94.964,108.606 95.783,108.398 96.396,108.398 C 97.01,108.398 97.624,108.606 98.237,109.014 C 98.851,109.216 99.261,109.627 99.67,110.037 C 99.873,110.446 100.077,110.648 100.282,110.856 L 100.282,110.856 z M 88.623,117.196 C 87.805,117.401 87.191,117.607 86.373,117.809 V 111.469 C 86.373,111.469 86.373,111.264 86.373,111.059 C 86.167,111.059 86.167,110.856 85.964,110.648 C 85.964,110.648 85.76,110.446 85.555,110.446 C 85.351,110.446 85.351,110.24 85.145,110.24 H 84.327 V 108.606 H 85.351 C 86.373,108.606 87.192,109.014 87.805,109.627 C 88.214,110.239 88.623,111.059 88.623,112.079 V 117.196 L 88.623,117.196 z M 78.395,119.241 C 77.373,119.241 76.35,119.241 75.532,119.241 H 75.123 C 74.917,119.241 74.917,119.241 74.714,119.039 C 74.101,118.833 73.692,118.423 73.282,118.015 C 72.872,117.402 72.463,116.788 72.258,116.173 C 72.054,115.56 71.85,114.741 71.85,113.923 C 71.85,113.31 72.054,112.491 72.258,111.878 C 72.463,111.265 72.872,110.649 73.282,110.038 C 73.691,109.628 74.1,109.217 74.714,109.015 C 75.327,108.607 75.942,108.399 76.555,108.399 C 77.373,108.399 77.987,108.607 78.601,109.015 C 79.009,109.217 79.623,109.628 80.033,110.038 C 80.442,110.648 80.646,111.265 81.055,111.878 C 81.259,112.491 81.259,113.31 81.259,114.128 C 81.259,114.946 81.259,115.56 81.055,116.173 C 80.646,116.991 80.442,117.402 80.033,118.015 C 79.624,118.423 79.01,118.833 78.601,119.039 L 78.395,119.241 L 78.395,119.241 z M 68.781,118.628 C 68.166,118.628 67.348,118.423 66.735,118.22 V 111.47 C 66.735,111.47 66.735,111.265 66.531,111.06 C 66.531,111.06 66.325,110.857 66.325,110.649 C 66.121,110.649 65.916,110.447 65.916,110.447 C 65.712,110.447 65.507,110.241 65.303,110.241 H 64.69 V 108.607 H 65.507 C 66.531,108.607 67.348,109.015 67.963,109.628 C 68.576,110.24 68.781,111.06 68.781,112.08 V 118.628 L 68.781,118.628 z M 61.007,116.58 C 60.394,116.378 59.78,116.173 58.962,115.765 L 59.166,115.56 C 59.166,114.947 59.372,114.539 59.372,113.923 C 59.372,113.31 59.166,112.902 59.166,112.288 C 58.962,111.878 58.757,111.47 58.553,111.265 C 58.347,110.857 58.144,110.649 57.94,110.447 C 57.531,110.241 57.325,110.241 56.916,110.241 C 56.098,110.241 55.484,110.649 55.075,111.265 C 54.666,111.672 54.462,112.492 54.462,113.515 C 53.848,113.107 53.03,112.697 52.416,112.08 V 111.878 C 52.825,111.265 53.03,110.649 53.438,110.038 C 53.847,109.628 54.461,109.217 54.871,109.015 C 55.484,108.607 56.098,108.399 56.916,108.399 C 57.531,108.399 58.144,108.607 58.757,109.015 C 59.372,109.217 59.781,109.628 60.19,110.038 C 60.598,110.648 61.007,111.265 61.212,111.878 C 61.416,112.491 61.621,113.31 61.621,114.128 C 61.621,114.946 61.416,115.56 61.212,116.173 C 61.212,116.378 61.007,116.58 61.007,116.58 L 61.007,116.58 z M 39.528,97.966 C 38.915,96.945 38.302,95.922 37.892,94.695 C 38.096,94.9 38.505,95.102 38.711,95.308 C 39.324,95.921 39.528,96.74 39.528,97.763 V 97.966 L 39.528,97.966 z M 36.46,90.808 C 36.255,89.99 35.846,89.376 35.846,88.558 C 35.846,88.761 35.846,88.761 36.051,88.761 C 36.255,88.969 36.664,89.171 37.073,89.171 C 37.482,89.171 37.686,88.969 38.095,88.761 C 38.301,88.558 38.71,88.353 38.913,87.945 C 39.119,87.74 39.322,87.333 39.322,86.922 C 39.526,86.309 39.526,85.901 39.526,85.288 C 39.526,84.672 39.526,84.261 39.322,83.648 C 39.322,83.24 39.118,82.829 38.913,82.627 C 38.709,82.219 38.504,82.011 38.095,81.809 C 37.891,81.604 37.482,81.604 37.277,81.604 C 36.46,81.604 35.845,81.809 35.232,82.627 C 35.027,82.829 34.823,83.445 34.823,83.854 C 34.619,82.83 34.619,81.809 34.414,80.788 C 34.619,80.58 35.027,80.378 35.232,80.173 C 35.845,79.97 36.46,79.762 37.073,79.762 C 37.891,79.762 38.505,79.97 38.914,80.378 C 39.527,80.58 40.142,80.991 40.551,81.399 C 40.96,82.012 41.164,82.628 41.369,83.242 C 41.573,83.855 41.777,84.674 41.777,85.492 C 41.777,86.31 41.573,86.924 41.369,87.54 C 41.164,88.153 40.96,88.764 40.551,89.379 C 40.142,89.79 39.527,90.198 38.914,90.403 C 38.505,90.605 37.686,90.81 37.073,90.81 C 36.87,90.808 36.665,90.808 36.46,90.808 L 36.46,90.808 z M 35.846,67.692 C 36.051,67.079 36.255,66.465 36.255,65.851 C 37.277,65.851 38.096,66.26 38.711,66.874 C 39.324,67.487 39.528,68.306 39.528,69.328 V 76.282 H 37.278 V 68.715 C 37.278,68.715 37.278,68.509 37.278,68.305 C 37.074,68.305 37.074,68.1 36.87,67.896 C 36.87,67.896 36.664,67.691 36.46,67.691 C 36.46,67.691 36.255,67.691 36.051,67.691 H 35.846 L 35.846,67.692 z M 37.687,62.375 C 38.711,59.919 40.143,57.465 41.574,55.215 C 41.778,55.828 41.778,56.442 41.778,57.056 C 41.778,57.669 41.574,58.488 41.37,59.101 C 41.165,59.716 40.961,60.329 40.552,60.738 C 40.143,61.351 39.528,61.76 38.915,61.966 C 38.505,62.17 38.096,62.375 37.687,62.375 L 37.687,62.375 z M 47.711,48.056 C 48.937,47.033 50.165,46.01 51.596,44.988 C 51.392,45.601 50.983,46.01 50.574,46.623 C 50.164,47.033 49.755,47.442 49.142,47.647 C 48.733,47.851 48.324,48.056 47.711,48.056 L 47.711,48.056 z M 57.121,41.715 C 57.734,41.306 58.553,40.896 59.371,40.691 V 47.851 H 57.121 V 41.715 L 57.121,41.715 z M 63.257,39.259 C 65.303,38.646 67.348,38.031 69.394,37.827 C 69.803,38.031 70.212,38.44 70.416,38.645 C 70.825,39.258 71.234,39.872 71.439,40.486 C 71.643,41.099 71.643,41.918 71.643,42.736 C 71.643,43.554 71.643,44.168 71.439,44.78 C 71.234,45.395 70.825,46.008 70.416,46.621 C 70.007,47.031 69.599,47.44 68.984,47.645 C 68.371,47.849 67.756,48.054 66.939,48.054 C 66.324,48.054 65.711,47.849 65.097,47.645 C 64.484,47.44 64.075,47.031 63.665,46.621 C 63.256,46.008 62.847,45.395 62.643,44.78 C 62.439,44.167 62.439,43.348 62.439,42.53 C 62.439,41.917 62.439,41.098 62.643,40.485 C 62.848,40.078 63.053,39.463 63.257,39.259 L 63.257,39.259 z M 79.008,113.923 C 79.008,113.31 79.008,112.902 78.804,112.288 C 78.804,111.878 78.6,111.47 78.395,111.265 C 78.191,110.857 77.986,110.649 77.577,110.447 C 77.373,110.241 76.964,110.241 76.758,110.241 C 75.941,110.241 75.326,110.649 74.917,111.265 C 74.304,111.878 74.1,112.902 74.1,114.128 C 74.1,114.741 74.304,115.151 74.304,115.56 C 74.508,115.97 74.508,116.378 74.714,116.789 C 74.918,116.992 75.327,117.402 75.532,117.402 C 75.941,117.608 76.145,117.81 76.554,117.81 C 76.963,117.81 77.372,117.608 77.576,117.402 C 77.985,117.197 78.19,116.992 78.394,116.789 C 78.599,116.379 78.803,115.971 78.803,115.56 C 79.008,114.946 79.008,114.538 79.008,113.923 L 79.008,113.923 z M 49.143,90.603 H 46.893 V 82.829 C 46.893,82.829 46.893,82.627 46.893,82.422 C 46.688,82.422 46.688,82.219 46.484,82.011 C 46.28,82.011 46.28,81.809 46.075,81.809 C 45.871,81.809 45.871,81.604 45.666,81.604 H 44.848 V 79.969 H 45.871 C 46.893,79.969 47.712,80.377 48.325,80.99 C 48.734,81.397 49.144,82.422 49.144,83.445 V 90.603 L 49.143,90.603 z M 61.621,85.489 C 61.621,86.307 61.416,86.921 61.212,87.537 C 61.007,88.15 60.597,88.761 60.19,89.376 C 59.781,89.787 59.372,90.195 58.757,90.4 C 58.144,90.602 57.531,90.807 56.916,90.807 C 56.098,90.807 55.484,90.602 54.871,90.4 C 54.462,90.195 53.848,89.787 53.438,89.376 C 53.03,88.761 52.825,88.15 52.416,87.537 C 52.212,86.921 52.212,86.102 52.212,85.287 C 52.212,84.671 52.212,83.852 52.416,83.239 C 52.825,82.421 53.03,82.01 53.438,81.396 C 53.847,80.989 54.461,80.578 54.871,80.17 C 55.484,79.967 56.098,79.759 56.916,79.759 C 57.531,79.759 58.144,79.967 58.757,80.375 C 59.372,80.577 59.781,80.988 60.19,81.396 C 60.598,82.009 61.007,82.625 61.212,83.239 C 61.416,83.853 61.621,84.671 61.621,85.489 L 61.621,85.489 z M 59.371,85.287 C 59.371,84.671 59.165,84.26 59.165,83.647 C 58.961,83.239 58.756,82.828 58.552,82.626 C 58.346,82.218 58.143,82.01 57.939,81.808 C 57.53,81.603 57.324,81.603 56.915,81.603 C 56.097,81.603 55.483,81.808 55.074,82.626 C 54.665,83.239 54.461,84.26 54.461,85.489 C 54.461,86.102 54.461,86.51 54.665,86.921 C 54.665,87.332 54.87,87.739 55.074,88.15 C 55.28,88.352 55.483,88.557 55.892,88.76 C 56.096,88.968 56.505,89.17 56.914,89.17 C 57.12,89.17 57.529,88.968 57.938,88.76 C 58.142,88.557 58.346,88.352 58.551,87.944 C 58.755,87.739 58.96,87.332 59.164,86.921 C 59.166,86.308 59.371,85.9 59.371,85.287 L 59.371,85.287 z M 68.781,90.603 H 66.735 V 82.829 C 66.735,82.829 66.735,82.627 66.531,82.422 C 66.531,82.422 66.325,82.219 66.325,82.011 C 66.121,82.011 65.916,81.809 65.916,81.809 C 65.712,81.809 65.507,81.604 65.303,81.604 H 64.69 V 79.969 H 65.507 C 66.531,79.969 67.348,80.377 67.963,80.99 C 68.576,81.397 68.781,82.422 68.781,83.445 V 90.603 L 68.781,90.603 z M 81.258,85.489 C 81.258,86.307 81.258,86.921 81.054,87.537 C 80.645,88.15 80.441,88.761 80.032,89.376 C 79.623,89.787 79.009,90.195 78.6,90.4 C 77.986,90.602 77.372,90.807 76.554,90.807 C 75.941,90.807 75.326,90.602 74.713,90.4 C 74.1,90.195 73.691,89.787 73.281,89.376 C 72.871,88.761 72.462,88.15 72.257,87.537 C 72.053,86.921 71.849,86.102 71.849,85.287 C 71.849,84.671 72.053,83.852 72.257,83.239 C 72.462,82.421 72.871,82.01 73.281,81.396 C 73.69,80.989 74.099,80.578 74.713,80.17 C 75.326,79.967 75.941,79.759 76.554,79.759 C 77.372,79.759 77.986,79.967 78.6,80.375 C 79.008,80.577 79.622,80.988 80.032,81.396 C 80.441,82.009 80.645,82.625 81.054,83.239 C 81.258,83.853 81.258,84.671 81.258,85.489 L 81.258,85.489 z M 79.008,85.287 C 79.008,84.671 79.008,84.26 78.804,83.647 C 78.804,83.239 78.6,82.828 78.395,82.626 C 78.191,82.218 77.986,82.01 77.577,81.808 C 77.373,81.603 76.964,81.603 76.758,81.603 C 75.941,81.603 75.326,81.808 74.917,82.626 C 74.304,83.239 74.1,84.26 74.1,85.489 C 74.1,86.102 74.304,86.51 74.304,86.921 C 74.508,87.332 74.508,87.739 74.714,88.15 C 74.918,88.352 75.327,88.557 75.532,88.76 C 75.941,88.968 76.145,89.17 76.554,89.17 C 76.963,89.17 77.372,88.968 77.576,88.76 C 77.985,88.557 78.19,88.352 78.394,87.944 C 78.599,87.739 78.803,87.332 78.803,86.921 C 79.008,86.308 79.008,85.9 79.008,85.287 L 79.008,85.287 z M 88.623,90.603 H 86.373 V 82.829 C 86.373,82.829 86.373,82.627 86.373,82.422 C 86.167,82.422 86.167,82.219 85.964,82.011 C 85.964,82.011 85.76,81.809 85.555,81.809 C 85.351,81.809 85.351,81.604 85.145,81.604 H 84.327 V 79.969 H 85.351 C 86.373,79.969 87.192,80.377 87.805,80.99 C 88.214,81.397 88.623,82.422 88.623,83.445 V 90.603 L 88.623,90.603 z M 101.101,85.489 C 101.101,86.307 100.895,86.921 100.692,87.537 C 100.486,88.15 100.077,88.761 99.67,89.376 C 99.261,89.787 98.851,90.195 98.237,90.4 C 97.624,90.602 97.01,90.807 96.396,90.807 C 95.577,90.807 94.964,90.602 94.555,90.4 C 93.942,90.195 93.327,89.787 92.918,89.376 C 92.51,88.761 92.305,88.15 92.101,87.537 C 91.895,86.921 91.692,86.102 91.692,85.287 C 91.692,84.671 91.896,83.852 92.101,83.239 C 92.305,82.421 92.51,82.01 92.918,81.396 C 93.327,80.989 93.942,80.578 94.555,80.17 C 94.964,79.967 95.783,79.759 96.396,79.759 C 97.01,79.759 97.624,79.967 98.237,80.375 C 98.851,80.577 99.261,80.988 99.67,81.396 C 100.078,82.009 100.487,82.625 100.692,83.239 C 100.896,83.853 101.101,84.671 101.101,85.489 L 101.101,85.489 z M 98.851,85.287 C 98.851,84.671 98.646,84.26 98.646,83.647 C 98.442,83.239 98.442,82.828 98.237,82.626 C 98.033,82.218 97.624,82.01 97.42,81.808 C 97.011,81.603 96.806,81.603 96.397,81.603 C 95.578,81.603 94.965,81.808 94.556,82.626 C 94.146,83.239 93.943,84.26 93.943,85.489 C 93.943,86.102 93.943,86.51 94.147,86.921 C 94.147,87.332 94.353,87.739 94.557,88.15 C 94.762,88.352 94.966,88.557 95.375,88.76 C 95.579,88.968 95.988,89.17 96.397,89.17 C 96.806,89.17 97.011,88.968 97.42,88.76 C 97.624,88.557 97.828,88.352 98.033,87.944 C 98.442,87.739 98.442,87.332 98.646,86.921 C 98.646,86.308 98.851,85.9 98.851,85.287 L 98.851,85.287 z M 108.261,90.603 H 106.215 V 82.829 C 106.215,82.829 106.215,82.627 106.011,82.422 C 106.011,82.422 105.806,82.219 105.806,82.011 C 105.602,82.011 105.602,81.809 105.397,81.809 C 105.193,81.809 104.988,81.604 104.988,81.604 H 104.171 V 79.969 H 104.988 C 106.216,79.969 106.829,80.377 107.443,80.99 C 108.056,81.397 108.262,82.422 108.262,83.445 V 90.603 L 108.261,90.603 z M 52.006,99.809 C 52.006,100.627 51.802,101.241 51.596,101.854 C 51.392,102.672 51.187,103.081 50.574,103.696 C 50.164,104.107 49.755,104.514 49.142,104.717 C 48.529,105.127 47.914,105.127 47.301,105.127 C 46.687,105.127 45.869,105.127 45.46,104.717 C 44.846,104.514 44.232,104.107 43.823,103.696 C 43.414,103.081 43.21,102.673 43.005,101.854 C 42.801,101.241 42.596,100.422 42.596,99.809 C 42.596,98.991 42.801,98.172 43.005,97.559 C 43.21,96.946 43.414,96.332 43.823,95.719 C 44.232,95.309 44.845,94.901 45.46,94.696 C 45.869,94.285 46.687,94.285 47.301,94.285 C 47.914,94.285 48.733,94.285 49.142,94.696 C 49.755,94.901 50.37,95.309 50.779,95.923 C 51.187,96.333 51.392,96.946 51.596,97.56 C 51.802,98.377 52.006,98.99 52.006,99.809 L 52.006,99.809 z M 49.756,99.604 C 49.756,98.991 49.756,98.583 49.552,98.172 C 49.346,97.559 49.346,97.151 49.143,96.945 C 48.937,96.534 48.53,96.332 48.324,96.127 C 48.12,96.127 47.711,95.922 47.302,95.922 C 46.484,95.922 45.87,96.332 45.461,96.945 C 45.052,97.558 44.847,98.582 44.847,99.808 C 44.847,100.421 44.847,100.831 45.052,101.24 C 45.052,101.853 45.256,102.058 45.461,102.467 C 45.665,102.877 45.87,103.08 46.28,103.285 C 46.484,103.285 46.893,103.49 47.302,103.49 C 47.712,103.49 47.915,103.285 48.324,103.08 C 48.53,103.08 48.937,102.672 49.143,102.467 C 49.347,102.059 49.347,101.649 49.552,101.24 C 49.756,100.832 49.756,100.217 49.756,99.604 L 49.756,99.604 z M 59.371,105.127 H 57.121 V 97.354 C 57.121,97.151 57.121,96.946 56.915,96.946 C 56.915,96.741 56.711,96.535 56.711,96.535 C 56.505,96.333 56.505,96.333 56.301,96.128 C 56.096,96.128 55.892,96.128 55.892,96.128 H 55.074 V 94.49 H 56.096 C 57.12,94.49 57.938,94.695 58.346,95.308 C 58.961,95.921 59.37,96.74 59.37,97.763 V 105.127 L 59.371,105.127 z M 71.644,99.809 C 71.644,100.627 71.644,101.241 71.44,101.854 C 71.235,102.672 70.826,103.081 70.417,103.696 C 70.008,104.107 69.6,104.514 68.985,104.717 C 68.372,105.127 67.757,105.127 66.94,105.127 C 66.325,105.127 65.712,105.127 65.098,104.717 C 64.485,104.514 64.076,104.107 63.666,103.696 C 63.257,103.081 62.848,102.673 62.644,101.854 C 62.44,101.241 62.44,100.422 62.44,99.809 C 62.44,98.991 62.44,98.172 62.644,97.559 C 62.848,96.946 63.257,96.332 63.666,95.719 C 64.075,95.309 64.484,94.901 65.098,94.696 C 65.713,94.285 66.326,94.285 67.144,94.285 C 67.757,94.285 68.372,94.285 68.985,94.696 C 69.599,94.901 70.007,95.309 70.417,95.923 C 70.826,96.333 71.235,96.946 71.44,97.56 C 71.644,98.377 71.644,98.99 71.644,99.809 L 71.644,99.809 z M 69.394,99.604 C 69.394,98.991 69.394,98.583 69.394,98.172 C 69.19,97.559 68.985,97.151 68.781,96.945 C 68.576,96.534 68.372,96.332 68.166,96.127 C 67.757,96.127 67.553,95.922 67.144,95.922 C 66.325,95.922 65.712,96.332 65.303,96.945 C 64.894,97.558 64.69,98.582 64.69,99.808 C 64.69,100.421 64.69,100.831 64.69,101.24 C 64.894,101.853 65.098,102.058 65.303,102.467 C 65.507,102.877 65.713,103.08 65.916,103.285 C 66.325,103.285 66.734,103.49 66.94,103.49 C 67.348,103.49 67.757,103.285 67.962,103.08 C 68.371,103.08 68.575,102.672 68.78,102.467 C 68.984,102.059 69.189,101.649 69.393,101.24 C 69.394,100.832 69.394,100.217 69.394,99.604 L 69.394,99.604 z M 79.008,105.127 H 76.963 V 97.354 C 76.963,97.151 76.757,96.946 76.757,96.946 C 76.757,96.741 76.553,96.535 76.349,96.535 C 76.349,96.333 76.144,96.333 75.94,96.128 C 75.94,96.128 75.734,96.128 75.531,96.128 H 74.916 V 94.49 H 75.734 C 76.756,94.49 77.575,94.695 78.19,95.308 C 78.803,95.921 79.007,96.74 79.007,97.763 V 105.127 L 79.008,105.127 z M 91.486,99.809 C 91.486,100.627 91.282,101.241 91.077,101.854 C 90.873,102.672 90.668,103.081 90.26,103.696 C 89.85,104.107 89.236,104.514 88.623,104.717 C 88.214,105.127 87.395,105.127 86.782,105.127 C 86.167,105.127 85.554,105.127 84.941,104.717 C 84.326,104.514 83.917,104.107 83.509,103.696 C 83.1,103.081 82.691,102.673 82.485,101.854 C 82.281,101.241 82.076,100.422 82.076,99.809 C 82.076,98.991 82.281,98.172 82.485,97.559 C 82.691,96.946 83.1,96.332 83.509,95.719 C 83.917,95.309 84.326,94.901 84.941,94.696 C 85.554,94.285 86.167,94.285 86.782,94.285 C 87.6,94.285 88.214,94.285 88.623,94.696 C 89.236,94.901 89.851,95.309 90.26,95.923 C 90.668,96.333 90.873,96.946 91.077,97.56 C 91.282,98.377 91.486,98.99 91.486,99.809 L 91.486,99.809 z M 89.236,99.604 C 89.236,98.991 89.236,98.583 89.032,98.172 C 89.032,97.559 88.827,97.151 88.623,96.945 C 88.418,96.534 88.214,96.332 87.805,96.127 C 87.601,96.127 87.192,95.922 86.987,95.922 C 86.168,95.922 85.351,96.332 84.942,96.945 C 84.533,97.558 84.327,98.582 84.327,99.808 C 84.327,100.421 84.327,100.831 84.533,101.24 C 84.737,101.853 84.737,102.058 84.942,102.467 C 85.146,102.877 85.351,103.08 85.76,103.285 C 85.964,103.285 86.373,103.49 86.782,103.49 C 87.191,103.49 87.395,103.285 87.804,103.08 C 88.009,103.08 88.417,102.672 88.622,102.467 C 88.826,102.059 89.031,101.649 89.031,101.24 C 89.236,100.832 89.236,100.217 89.236,99.604 L 89.236,99.604 z M 98.851,105.127 H 96.601 V 97.354 C 96.601,97.151 96.601,96.946 96.601,96.946 C 96.396,96.741 96.396,96.535 96.192,96.535 C 95.987,96.333 95.987,96.333 95.783,96.128 C 95.577,96.128 95.577,96.128 95.374,96.128 H 94.556 V 94.49 H 95.578 C 96.602,94.49 97.42,94.695 98.034,95.308 C 98.443,95.921 98.852,96.74 98.852,97.763 V 105.127 L 98.851,105.127 z M 109.079,99.604 C 109.079,98.991 108.873,98.583 108.873,98.172 C 108.669,97.559 108.464,97.151 108.26,96.945 C 108.054,96.534 107.85,96.332 107.645,96.127 C 107.236,96.127 107.032,95.922 106.623,95.922 C 105.805,95.922 105.191,96.332 104.782,96.945 C 104.373,97.558 104.169,98.582 104.169,99.808 C 104.169,100.421 104.169,100.831 104.373,101.24 C 104.373,101.853 104.577,102.058 104.782,102.467 C 104.986,102.877 105.191,103.08 105.6,103.285 C 105.804,103.285 106.213,103.49 106.622,103.49 C 106.826,103.49 107.235,103.285 107.644,103.08 C 107.849,103.08 108.053,102.672 108.259,102.467 C 108.463,102.059 108.668,101.649 108.872,101.24 C 108.874,100.832 109.079,100.217 109.079,99.604 L 109.079,99.604 z M 52.006,71.375 C 52.006,71.988 51.802,72.601 51.596,73.216 C 51.392,74.032 51.187,74.444 50.574,75.057 C 50.164,75.464 49.755,75.875 49.142,76.078 C 48.529,76.489 47.914,76.489 47.301,76.489 C 46.687,76.489 45.869,76.489 45.46,76.078 C 44.846,75.876 44.232,75.465 43.823,75.057 C 43.414,74.444 43.21,73.828 43.005,73.216 C 42.801,72.601 42.596,71.988 42.596,71.169 C 42.596,70.556 42.801,69.737 43.005,69.125 C 43.21,68.51 43.414,67.897 43.823,67.284 C 44.232,66.874 44.845,66.465 45.46,66.26 C 45.869,65.851 46.687,65.851 47.301,65.851 C 47.914,65.851 48.733,65.851 49.142,66.26 C 49.755,66.465 50.37,66.874 50.779,67.284 C 51.187,67.897 51.392,68.51 51.596,69.125 C 51.802,69.738 52.006,70.557 52.006,71.375 L 52.006,71.375 z M 49.756,71.17 C 49.756,70.557 49.756,70.148 49.552,69.535 C 49.346,69.126 49.346,68.717 49.143,68.511 C 48.937,68.102 48.53,67.898 48.324,67.693 C 48.12,67.489 47.711,67.489 47.302,67.489 C 46.484,67.489 45.87,67.898 45.461,68.511 C 45.052,69.126 44.847,70.148 44.847,71.376 C 44.847,71.989 44.847,72.193 45.052,72.602 C 45.052,73.217 45.256,73.42 45.461,73.829 C 45.665,74.034 45.87,74.445 46.28,74.445 C 46.484,74.647 46.893,74.852 47.302,74.852 C 47.712,74.852 47.915,74.647 48.324,74.445 C 48.53,74.239 48.937,74.034 49.143,73.829 C 49.347,73.421 49.347,73.012 49.552,72.602 C 49.756,71.989 49.756,71.785 49.756,71.17 L 49.756,71.17 z M 59.371,76.283 H 57.121 V 68.716 C 57.121,68.716 57.121,68.51 56.915,68.306 C 56.915,68.306 56.711,68.101 56.711,67.897 C 56.505,67.897 56.505,67.692 56.301,67.692 C 56.096,67.692 55.892,67.692 55.892,67.692 H 55.074 V 65.851 H 56.096 C 57.12,65.851 57.938,66.26 58.346,66.874 C 58.961,67.487 59.37,68.306 59.37,69.328 V 76.283 L 59.371,76.283 z M 71.644,71.375 C 71.644,71.988 71.644,72.601 71.44,73.216 C 71.235,74.032 70.826,74.444 70.417,75.057 C 70.008,75.464 69.6,75.875 68.985,76.078 C 68.372,76.489 67.757,76.489 66.94,76.489 C 66.325,76.489 65.712,76.489 65.098,76.078 C 64.485,75.876 64.076,75.465 63.666,75.057 C 63.257,74.444 62.848,73.828 62.644,73.216 C 62.44,72.601 62.44,71.988 62.44,71.169 C 62.44,70.556 62.44,69.737 62.644,69.125 C 62.848,68.51 63.257,67.897 63.666,67.284 C 64.075,66.874 64.484,66.465 65.098,66.26 C 65.713,65.851 66.326,65.851 67.144,65.851 C 67.757,65.851 68.372,65.851 68.985,66.26 C 69.599,66.465 70.007,66.874 70.417,67.284 C 70.826,67.897 71.235,68.51 71.44,69.125 C 71.644,69.738 71.644,70.557 71.644,71.375 L 71.644,71.375 z M 69.394,71.17 C 69.394,70.557 69.394,70.148 69.394,69.535 C 69.19,69.126 68.985,68.717 68.781,68.511 C 68.576,68.102 68.372,67.898 68.166,67.693 C 67.757,67.489 67.553,67.489 67.144,67.489 C 66.325,67.489 65.712,67.898 65.303,68.511 C 64.894,69.126 64.69,70.148 64.69,71.376 C 64.69,71.989 64.69,72.193 64.69,72.602 C 64.894,73.217 65.098,73.42 65.303,73.829 C 65.507,74.034 65.713,74.445 65.916,74.445 C 66.325,74.647 66.734,74.852 66.94,74.852 C 67.348,74.852 67.757,74.647 67.962,74.445 C 68.371,74.239 68.575,74.034 68.78,73.829 C 68.984,73.421 69.189,73.012 69.393,72.602 C 69.394,71.989 69.394,71.785 69.394,71.17 L 69.394,71.17 z M 79.008,76.283 H 76.963 V 68.716 C 76.963,68.716 76.757,68.51 76.757,68.306 C 76.757,68.306 76.553,68.101 76.349,67.897 C 76.349,67.897 76.144,67.692 75.94,67.692 C 75.94,67.692 75.734,67.692 75.531,67.692 H 74.916 V 65.851 H 75.734 C 76.756,65.851 77.575,66.26 78.19,66.874 C 78.803,67.487 79.007,68.306 79.007,69.328 V 76.283 L 79.008,76.283 z M 91.486,71.375 C 91.486,71.988 91.282,72.601 91.077,73.216 C 90.873,74.032 90.668,74.444 90.26,75.057 C 89.85,75.464 89.236,75.875 88.623,76.078 C 88.214,76.489 87.395,76.489 86.782,76.489 C 86.167,76.489 85.554,76.489 84.941,76.078 C 84.326,75.876 83.917,75.465 83.509,75.057 C 83.1,74.444 82.691,73.828 82.485,73.216 C 82.281,72.601 82.076,71.988 82.076,71.169 C 82.076,70.556 82.281,69.737 82.485,69.125 C 82.691,68.51 83.1,67.897 83.509,67.284 C 83.917,66.874 84.326,66.465 84.941,66.26 C 85.554,65.851 86.167,65.851 86.782,65.851 C 87.6,65.851 88.214,65.851 88.623,66.26 C 89.236,66.465 89.851,66.874 90.26,67.284 C 90.668,67.897 90.873,68.51 91.077,69.125 C 91.282,69.738 91.486,70.557 91.486,71.375 L 91.486,71.375 z M 89.236,71.17 C 89.236,70.557 89.236,70.148 89.032,69.535 C 89.032,69.126 88.827,68.717 88.623,68.511 C 88.418,68.102 88.214,67.898 87.805,67.693 C 87.601,67.489 87.192,67.489 86.987,67.489 C 86.168,67.489 85.351,67.898 84.942,68.511 C 84.533,69.126 84.327,70.148 84.327,71.376 C 84.327,71.989 84.327,72.193 84.533,72.602 C 84.737,73.217 84.737,73.42 84.942,73.829 C 85.146,74.034 85.351,74.445 85.76,74.445 C 85.964,74.647 86.373,74.852 86.782,74.852 C 87.191,74.852 87.395,74.647 87.804,74.445 C 88.009,74.239 88.417,74.034 88.622,73.829 C 88.826,73.421 89.031,73.012 89.031,72.602 C 89.236,71.989 89.236,71.785 89.236,71.17 L 89.236,71.17 z M 98.851,76.283 H 96.601 V 68.716 C 96.601,68.716 96.601,68.51 96.601,68.306 C 96.396,68.306 96.396,68.101 96.192,67.897 C 95.987,67.897 95.987,67.692 95.783,67.692 C 95.577,67.692 95.577,67.692 95.374,67.692 H 94.556 V 65.851 H 95.578 C 96.602,65.851 97.42,66.26 98.034,66.874 C 98.443,67.487 98.852,68.306 98.852,69.328 V 76.283 L 98.851,76.283 z M 111.329,71.375 C 111.329,71.988 111.124,72.601 110.92,73.216 C 110.714,74.032 110.305,74.444 109.896,75.057 C 109.487,75.464 109.079,75.875 108.464,76.078 C 107.851,76.489 107.236,76.489 106.623,76.489 C 105.805,76.489 105.191,76.489 104.577,76.078 C 104.169,75.876 103.555,75.465 103.145,75.057 C 102.736,74.444 102.532,73.828 102.123,73.216 C 101.919,72.601 101.919,71.988 101.919,71.169 C 101.919,70.556 101.919,69.737 102.123,69.125 C 102.532,68.51 102.736,67.897 103.145,67.284 C 103.555,66.874 104.169,66.465 104.577,66.26 C 105.192,65.851 105.805,65.851 106.623,65.851 C 107.236,65.851 107.851,65.851 108.464,66.26 C 109.079,66.465 109.486,66.874 109.896,67.284 C 110.305,67.897 110.714,68.51 110.92,69.125 C 111.124,69.738 111.329,70.557 111.329,71.375 L 111.329,71.375 z M 109.079,71.17 C 109.079,70.557 108.873,70.148 108.873,69.535 C 108.669,69.126 108.464,68.717 108.26,68.511 C 108.054,68.102 107.85,67.898 107.645,67.693 C 107.236,67.489 107.032,67.489 106.623,67.489 C 105.805,67.489 105.191,67.898 104.782,68.511 C 104.373,69.126 104.169,70.148 104.169,71.376 C 104.169,71.989 104.169,72.193 104.373,72.602 C 104.373,73.217 104.577,73.42 104.782,73.829 C 104.986,74.034 105.191,74.445 105.6,74.445 C 105.804,74.647 106.213,74.852 106.622,74.852 C 106.826,74.852 107.235,74.647 107.644,74.445 C 107.849,74.239 108.053,74.034 108.259,73.829 C 108.463,73.421 108.668,73.012 108.872,72.602 C 108.874,71.989 109.079,71.785 109.079,71.17 L 109.079,71.17 z M 49.143,62.17 H 46.893 V 54.397 C 46.893,54.397 46.893,54.191 46.893,53.988 C 46.688,53.782 46.688,53.782 46.484,53.579 C 46.28,53.579 46.28,53.375 46.075,53.375 C 45.871,53.17 45.871,53.17 45.666,53.17 H 44.848 V 51.533 H 45.871 C 46.893,51.533 47.712,51.942 48.325,52.351 C 48.734,52.966 49.144,53.783 49.144,55.011 V 62.17 L 49.143,62.17 z M 61.621,57.056 C 61.621,57.669 61.416,58.488 61.212,59.101 C 61.007,59.716 60.597,60.329 60.19,60.738 C 59.781,61.351 59.372,61.76 58.757,61.966 C 58.144,62.17 57.531,62.375 56.916,62.375 C 56.098,62.375 55.484,62.17 54.871,61.966 C 54.462,61.76 53.848,61.351 53.438,60.738 C 53.03,60.328 52.825,59.716 52.416,59.101 C 52.212,58.488 52.212,57.669 52.212,56.851 C 52.212,56.033 52.212,55.419 52.416,54.806 C 52.825,53.988 53.03,53.578 53.438,52.965 C 53.847,52.556 54.461,52.147 54.871,51.737 C 55.484,51.531 56.098,51.327 56.916,51.327 C 57.531,51.327 58.144,51.531 58.757,51.737 C 59.372,52.146 59.781,52.555 60.19,52.965 C 60.598,53.578 61.007,54.191 61.212,54.806 C 61.416,55.419 61.621,56.238 61.621,57.056 L 61.621,57.056 z M 59.371,56.851 C 59.371,56.238 59.165,55.624 59.165,55.215 C 58.961,54.806 58.756,54.397 58.552,54.191 C 58.346,53.782 58.143,53.578 57.939,53.374 C 57.53,53.169 57.324,53.169 56.915,53.169 C 56.097,53.169 55.483,53.374 55.074,54.191 C 54.665,54.806 54.461,55.828 54.461,57.056 C 54.461,57.669 54.461,58.078 54.665,58.488 C 54.665,58.897 54.87,59.307 55.074,59.716 C 55.28,59.92 55.483,60.125 55.892,60.329 C 56.096,60.533 56.505,60.533 56.914,60.533 C 57.12,60.533 57.529,60.533 57.938,60.329 C 58.142,60.125 58.346,59.92 58.551,59.511 C 58.755,59.307 58.96,58.898 59.164,58.283 C 59.166,57.875 59.371,57.465 59.371,56.851 L 59.371,56.851 z M 68.781,62.17 H 66.735 V 54.397 C 66.735,54.397 66.735,54.191 66.531,53.988 C 66.531,53.782 66.325,53.782 66.325,53.579 C 66.121,53.579 65.916,53.375 65.916,53.375 C 65.712,53.17 65.507,53.17 65.303,53.17 H 64.69 V 51.533 H 65.507 C 66.531,51.533 67.348,51.942 67.963,52.351 C 68.576,52.966 68.781,53.783 68.781,55.011 V 62.17 L 68.781,62.17 z M 81.258,57.056 C 81.258,57.669 81.258,58.488 81.054,59.101 C 80.645,59.716 80.441,60.329 80.032,60.738 C 79.623,61.351 79.009,61.76 78.6,61.966 C 77.986,62.17 77.372,62.375 76.554,62.375 C 75.941,62.375 75.326,62.17 74.713,61.966 C 74.1,61.76 73.691,61.351 73.281,60.738 C 72.871,60.328 72.462,59.716 72.257,59.101 C 72.053,58.488 71.849,57.669 71.849,56.851 C 71.849,56.033 72.053,55.419 72.257,54.806 C 72.462,53.988 72.871,53.578 73.281,52.965 C 73.69,52.556 74.099,52.147 74.713,51.737 C 75.326,51.531 75.941,51.327 76.554,51.327 C 77.372,51.327 77.986,51.531 78.6,51.737 C 79.008,52.146 79.622,52.555 80.032,52.965 C 80.441,53.578 80.645,54.191 81.054,54.806 C 81.258,55.419 81.258,56.238 81.258,57.056 L 81.258,57.056 z M 79.008,56.851 C 79.008,56.238 79.008,55.624 78.804,55.215 C 78.804,54.806 78.6,54.397 78.395,54.191 C 78.191,53.782 77.986,53.578 77.577,53.374 C 77.373,53.169 76.964,53.169 76.758,53.169 C 75.941,53.169 75.326,53.374 74.917,54.191 C 74.304,54.806 74.1,55.828 74.1,57.056 C 74.1,57.669 74.304,58.078 74.304,58.488 C 74.508,58.897 74.508,59.307 74.714,59.716 C 74.918,59.92 75.327,60.125 75.532,60.329 C 75.941,60.533 76.145,60.533 76.554,60.533 C 76.963,60.533 77.372,60.533 77.576,60.329 C 77.985,60.125 78.19,59.92 78.394,59.511 C 78.599,59.307 78.803,58.898 78.803,58.283 C 79.008,57.875 79.008,57.465 79.008,56.851 L 79.008,56.851 z M 88.623,62.17 H 86.373 V 54.397 C 86.373,54.397 86.373,54.191 86.373,53.988 C 86.167,53.782 86.167,53.782 85.964,53.579 C 85.964,53.579 85.76,53.375 85.555,53.375 C 85.351,53.17 85.351,53.17 85.145,53.17 H 84.327 V 51.533 H 85.351 C 86.373,51.533 87.192,51.942 87.805,52.351 C 88.214,52.966 88.623,53.783 88.623,55.011 V 62.17 L 88.623,62.17 z M 101.101,57.056 C 101.101,57.669 100.895,58.488 100.692,59.101 C 100.486,59.716 100.077,60.329 99.67,60.738 C 99.261,61.351 98.851,61.76 98.237,61.966 C 97.624,62.17 97.01,62.375 96.396,62.375 C 95.577,62.375 94.964,62.17 94.555,61.966 C 93.942,61.76 93.327,61.351 92.918,60.738 C 92.51,60.328 92.305,59.716 92.101,59.101 C 91.895,58.488 91.692,57.669 91.692,56.851 C 91.692,56.033 91.896,55.419 92.101,54.806 C 92.305,53.988 92.51,53.578 92.918,52.965 C 93.327,52.556 93.942,52.147 94.555,51.737 C 94.964,51.531 95.783,51.327 96.396,51.327 C 97.01,51.327 97.624,51.531 98.237,51.737 C 98.851,52.146 99.261,52.555 99.67,52.965 C 100.078,53.578 100.487,54.191 100.692,54.806 C 100.896,55.419 101.101,56.238 101.101,57.056 L 101.101,57.056 z M 98.851,56.851 C 98.851,56.238 98.646,55.624 98.646,55.215 C 98.442,54.806 98.442,54.397 98.237,54.191 C 98.033,53.782 97.624,53.578 97.42,53.374 C 97.011,53.169 96.806,53.169 96.397,53.169 C 95.578,53.169 94.965,53.374 94.556,54.191 C 94.146,54.806 93.943,55.828 93.943,57.056 C 93.943,57.669 93.943,58.078 94.147,58.488 C 94.147,58.897 94.353,59.307 94.557,59.716 C 94.762,59.92 94.966,60.125 95.375,60.329 C 95.579,60.533 95.988,60.533 96.397,60.533 C 96.806,60.533 97.011,60.533 97.42,60.329 C 97.624,60.125 97.828,59.92 98.033,59.511 C 98.442,59.307 98.442,58.898 98.646,58.283 C 98.646,57.875 98.851,57.465 98.851,56.851 L 98.851,56.851 z M 69.394,42.532 C 69.394,41.919 69.394,41.51 69.394,40.896 C 69.19,40.487 68.985,40.078 68.781,39.873 C 68.576,39.464 68.372,39.26 68.166,39.056 C 67.757,38.851 67.553,38.851 67.144,38.851 C 66.325,38.851 65.712,39.26 65.303,39.873 C 64.894,40.487 64.69,41.51 64.69,42.738 C 64.69,43.351 64.69,43.76 64.69,44.17 C 64.894,44.579 65.098,44.988 65.303,45.398 C 65.507,45.602 65.713,46.011 65.916,46.011 C 66.325,46.216 66.734,46.42 66.94,46.42 C 67.348,46.42 67.757,46.216 67.962,46.011 C 68.371,45.807 68.575,45.602 68.78,45.192 C 68.984,44.988 69.189,44.579 69.393,44.17 C 69.394,43.556 69.394,43.146 69.394,42.532 z"
         id="path3041"
         inkscape:connector-curvature="0"
         style="fill:url(#radialGradient3162)" />
      <path
         clip-rule="evenodd"
         d="M 115.215,115.56 C 131.989,97.764 135.057,70.352 121.352,48.873 C 107.442,27.395 81.054,18.803 57.939,26.781 L 62.847,34.555 C 81.666,29.236 102.532,36.396 113.783,53.782 C 125.033,70.966 122.989,92.852 110.305,107.788 L 115.215,115.56 z"
         id="path3043"
         inkscape:connector-curvature="0"
         style="fill:#ffffff;fill-rule:evenodd" />
      <path
         clip-rule="evenodd"
         d="M 27.051,17.371 C 5.572,40.078 1.685,75.058 19.277,102.467 C 32.777,123.334 55.484,134.584 78.6,134.176 C 85.76,134.379 93.123,133.15 100.078,130.9 L 99.874,130.698 L 100.078,130.493 L 93.737,120.674 C 82.487,123.947 70.827,123.537 59.986,120.061 C 49.757,116.174 40.553,109.016 34.212,99.197 C 21.119,78.741 23.369,52.967 38.303,35.374 L 33.188,27.397 H 33.394 L 27.051,17.371 z"
         id="path3045"
         inkscape:connector-curvature="0"
         style="fill:#ffffff;fill-rule:evenodd" />
      <polygon
         clip-rule="evenodd"
         points="14.367,13.689 46.483,9.802 45.052,43.35 "
         id="polygon3047"
         style="fill:#ffffff;fill-rule:evenodd" />
    </g>
  </g>
</svg>
